<mxfile host="app.diagrams.net" modified="2022-11-08T06:01:57.805Z" agent="5.0 (Macintosh; Intel Mac OS X 10_15_7) AppleWebKit/537.36 (KHTML, like Gecko) Chrome/107.0.0.0 Safari/537.36" etag="CL5mbxWeoc0hIpcfrMgC" version="20.5.3" type="github">
  <diagram id="IItAJoe4eAzEKYberFWu" name="第 1 页">
    <mxGraphModel dx="1426" dy="794" grid="1" gridSize="10" guides="1" tooltips="1" connect="1" arrows="1" fold="1" page="1" pageScale="1" pageWidth="827" pageHeight="1169" math="0" shadow="0">
      <root>
        <mxCell id="0" />
        <mxCell id="1" parent="0" />
        <mxCell id="-iCXwF2Be32UM4ucyUXN-1" value="All Features Embedding" style="rounded=0;whiteSpace=wrap;html=1;fillColor=#fff2cc;strokeColor=#d6b656;gradientColor=#ffd966;" vertex="1" parent="1">
          <mxGeometry x="90" y="300" width="1030" height="20" as="geometry" />
        </mxCell>
        <mxCell id="-iCXwF2Be32UM4ucyUXN-2" value="" style="group" vertex="1" connectable="0" parent="1">
          <mxGeometry x="100" y="320" width="135" height="200" as="geometry" />
        </mxCell>
        <mxCell id="-iCXwF2Be32UM4ucyUXN-3" value="" style="group" vertex="1" connectable="0" parent="-iCXwF2Be32UM4ucyUXN-2">
          <mxGeometry x="5" width="50" height="165" as="geometry" />
        </mxCell>
        <mxCell id="-iCXwF2Be32UM4ucyUXN-4" value="" style="group" vertex="1" connectable="0" parent="-iCXwF2Be32UM4ucyUXN-3">
          <mxGeometry y="25" width="50" height="65" as="geometry" />
        </mxCell>
        <mxCell id="-iCXwF2Be32UM4ucyUXN-5" value="" style="group" vertex="1" connectable="0" parent="-iCXwF2Be32UM4ucyUXN-4">
          <mxGeometry x="5" width="40" height="10" as="geometry" />
        </mxCell>
        <mxCell id="-iCXwF2Be32UM4ucyUXN-6" value="" style="rounded=0;whiteSpace=wrap;html=1;fontSize=22;strokeColor=none;fillColor=#000000;" vertex="1" parent="-iCXwF2Be32UM4ucyUXN-5">
          <mxGeometry width="10" height="10" as="geometry" />
        </mxCell>
        <mxCell id="-iCXwF2Be32UM4ucyUXN-7" style="edgeStyle=none;rounded=0;orthogonalLoop=1;jettySize=auto;html=1;exitX=1;exitY=1;exitDx=0;exitDy=0;fontSize=22;strokeColor=none;" edge="1" parent="-iCXwF2Be32UM4ucyUXN-5" source="-iCXwF2Be32UM4ucyUXN-6" target="-iCXwF2Be32UM4ucyUXN-6">
          <mxGeometry relative="1" as="geometry" />
        </mxCell>
        <mxCell id="-iCXwF2Be32UM4ucyUXN-8" value="" style="rounded=0;whiteSpace=wrap;html=1;fontSize=22;strokeColor=none;fillColor=#BFBFBF;" vertex="1" parent="-iCXwF2Be32UM4ucyUXN-5">
          <mxGeometry x="10" width="10" height="10" as="geometry" />
        </mxCell>
        <mxCell id="-iCXwF2Be32UM4ucyUXN-9" value="" style="rounded=0;whiteSpace=wrap;html=1;fontSize=22;strokeColor=none;fillColor=#000000;" vertex="1" parent="-iCXwF2Be32UM4ucyUXN-5">
          <mxGeometry x="20" width="10" height="10" as="geometry" />
        </mxCell>
        <mxCell id="-iCXwF2Be32UM4ucyUXN-10" value="" style="rounded=0;whiteSpace=wrap;html=1;fontSize=22;strokeColor=none;fillColor=#BFBFBF;" vertex="1" parent="-iCXwF2Be32UM4ucyUXN-5">
          <mxGeometry x="30" width="10" height="10" as="geometry" />
        </mxCell>
        <mxCell id="-iCXwF2Be32UM4ucyUXN-11" value="" style="shape=curlyBracket;whiteSpace=wrap;html=1;rounded=1;flipH=1;fontSize=22;strokeColor=#000000;fillColor=#000000;rotation=-90;size=0.5;" vertex="1" parent="-iCXwF2Be32UM4ucyUXN-4">
          <mxGeometry x="15" y="30" width="20" height="50" as="geometry" />
        </mxCell>
        <mxCell id="-iCXwF2Be32UM4ucyUXN-12" value="&lt;font style=&quot;font-size: 11px;&quot;&gt;concat&lt;/font&gt;" style="rounded=1;whiteSpace=wrap;html=1;fontSize=11;strokeColor=#000000;fillColor=none;" vertex="1" parent="-iCXwF2Be32UM4ucyUXN-4">
          <mxGeometry x="2.5" y="20" width="45" height="20" as="geometry" />
        </mxCell>
        <mxCell id="-iCXwF2Be32UM4ucyUXN-13" value="" style="rounded=0;whiteSpace=wrap;html=1;fontSize=22;strokeColor=none;fillColor=#000000;" vertex="1" parent="-iCXwF2Be32UM4ucyUXN-3">
          <mxGeometry x="10" y="90" width="10" height="10" as="geometry" />
        </mxCell>
        <mxCell id="-iCXwF2Be32UM4ucyUXN-14" value="" style="rounded=0;whiteSpace=wrap;html=1;fontSize=22;strokeColor=none;fillColor=#BFBFBF;" vertex="1" parent="-iCXwF2Be32UM4ucyUXN-3">
          <mxGeometry x="10" y="100" width="10" height="10" as="geometry" />
        </mxCell>
        <mxCell id="-iCXwF2Be32UM4ucyUXN-15" value="" style="rounded=0;whiteSpace=wrap;html=1;fontSize=22;strokeColor=none;fillColor=#000000;" vertex="1" parent="-iCXwF2Be32UM4ucyUXN-3">
          <mxGeometry x="10" y="110" width="10" height="10" as="geometry" />
        </mxCell>
        <mxCell id="-iCXwF2Be32UM4ucyUXN-16" value="" style="rounded=0;whiteSpace=wrap;html=1;fontSize=22;strokeColor=none;fillColor=#BFBFBF;" vertex="1" parent="-iCXwF2Be32UM4ucyUXN-3">
          <mxGeometry x="10" y="120" width="10" height="10" as="geometry" />
        </mxCell>
        <mxCell id="-iCXwF2Be32UM4ucyUXN-17" value="" style="rounded=0;whiteSpace=wrap;html=1;fontSize=22;strokeColor=none;fillColor=#000000;" vertex="1" parent="-iCXwF2Be32UM4ucyUXN-3">
          <mxGeometry x="30" y="90" width="10" height="10" as="geometry" />
        </mxCell>
        <mxCell id="-iCXwF2Be32UM4ucyUXN-18" value="" style="rounded=0;whiteSpace=wrap;html=1;fontSize=22;strokeColor=none;fillColor=#BFBFBF;" vertex="1" parent="-iCXwF2Be32UM4ucyUXN-3">
          <mxGeometry x="30" y="100" width="10" height="10" as="geometry" />
        </mxCell>
        <mxCell id="-iCXwF2Be32UM4ucyUXN-19" value="" style="rounded=0;whiteSpace=wrap;html=1;fontSize=22;strokeColor=none;fillColor=#000000;" vertex="1" parent="-iCXwF2Be32UM4ucyUXN-3">
          <mxGeometry x="30" y="110" width="10" height="15" as="geometry" />
        </mxCell>
        <mxCell id="-iCXwF2Be32UM4ucyUXN-20" value="" style="rounded=0;whiteSpace=wrap;html=1;fontSize=22;strokeColor=none;fillColor=#BFBFBF;" vertex="1" parent="-iCXwF2Be32UM4ucyUXN-3">
          <mxGeometry x="30" y="120" width="10" height="10" as="geometry" />
        </mxCell>
        <mxCell id="-iCXwF2Be32UM4ucyUXN-21" value="" style="ellipse;whiteSpace=wrap;html=1;aspect=fixed;fontSize=11;strokeColor=#000000;fillColor=none;" vertex="1" parent="-iCXwF2Be32UM4ucyUXN-3">
          <mxGeometry x="10" y="155" width="10" height="10" as="geometry" />
        </mxCell>
        <mxCell id="-iCXwF2Be32UM4ucyUXN-22" value="" style="ellipse;whiteSpace=wrap;html=1;aspect=fixed;fontSize=11;strokeColor=#000000;fillColor=none;" vertex="1" parent="-iCXwF2Be32UM4ucyUXN-3">
          <mxGeometry x="30" y="155" width="10" height="10" as="geometry" />
        </mxCell>
        <mxCell id="-iCXwF2Be32UM4ucyUXN-23" value="" style="endArrow=classic;html=1;rounded=0;fontSize=11;exitX=0.5;exitY=0;exitDx=0;exitDy=0;entryX=0.5;entryY=1;entryDx=0;entryDy=0;" edge="1" parent="-iCXwF2Be32UM4ucyUXN-3" source="-iCXwF2Be32UM4ucyUXN-21" target="-iCXwF2Be32UM4ucyUXN-16">
          <mxGeometry width="50" height="50" relative="1" as="geometry">
            <mxPoint x="-20" y="65" as="sourcePoint" />
            <mxPoint x="30" y="15" as="targetPoint" />
          </mxGeometry>
        </mxCell>
        <mxCell id="-iCXwF2Be32UM4ucyUXN-24" value="" style="endArrow=classic;html=1;rounded=0;fontSize=11;exitX=0.5;exitY=0;exitDx=0;exitDy=0;entryX=0.5;entryY=1;entryDx=0;entryDy=0;" edge="1" parent="-iCXwF2Be32UM4ucyUXN-3" source="-iCXwF2Be32UM4ucyUXN-22" target="-iCXwF2Be32UM4ucyUXN-20">
          <mxGeometry width="50" height="50" relative="1" as="geometry">
            <mxPoint x="34.81999999999999" y="155" as="sourcePoint" />
            <mxPoint x="34.81999999999999" y="130" as="targetPoint" />
          </mxGeometry>
        </mxCell>
        <mxCell id="-iCXwF2Be32UM4ucyUXN-25" value="" style="endArrow=classic;html=1;rounded=0;fontSize=11;exitX=0.5;exitY=0;exitDx=0;exitDy=0;entryX=0.5;entryY=1;entryDx=0;entryDy=0;" edge="1" parent="-iCXwF2Be32UM4ucyUXN-3">
          <mxGeometry width="50" height="50" relative="1" as="geometry">
            <mxPoint x="24.84999999999991" y="25" as="sourcePoint" />
            <mxPoint x="24.84999999999991" as="targetPoint" />
          </mxGeometry>
        </mxCell>
        <mxCell id="-iCXwF2Be32UM4ucyUXN-26" value="" style="group" vertex="1" connectable="0" parent="-iCXwF2Be32UM4ucyUXN-2">
          <mxGeometry x="75" width="50" height="165" as="geometry" />
        </mxCell>
        <mxCell id="-iCXwF2Be32UM4ucyUXN-27" value="" style="group" vertex="1" connectable="0" parent="-iCXwF2Be32UM4ucyUXN-26">
          <mxGeometry y="25" width="50" height="65" as="geometry" />
        </mxCell>
        <mxCell id="-iCXwF2Be32UM4ucyUXN-28" value="" style="group" vertex="1" connectable="0" parent="-iCXwF2Be32UM4ucyUXN-27">
          <mxGeometry x="5" width="40" height="10" as="geometry" />
        </mxCell>
        <mxCell id="-iCXwF2Be32UM4ucyUXN-29" value="" style="rounded=0;whiteSpace=wrap;html=1;fontSize=22;strokeColor=none;fillColor=#000000;" vertex="1" parent="-iCXwF2Be32UM4ucyUXN-28">
          <mxGeometry width="10" height="10" as="geometry" />
        </mxCell>
        <mxCell id="-iCXwF2Be32UM4ucyUXN-30" style="edgeStyle=none;rounded=0;orthogonalLoop=1;jettySize=auto;html=1;exitX=1;exitY=1;exitDx=0;exitDy=0;fontSize=22;strokeColor=none;" edge="1" parent="-iCXwF2Be32UM4ucyUXN-28" source="-iCXwF2Be32UM4ucyUXN-29" target="-iCXwF2Be32UM4ucyUXN-29">
          <mxGeometry relative="1" as="geometry" />
        </mxCell>
        <mxCell id="-iCXwF2Be32UM4ucyUXN-31" value="" style="rounded=0;whiteSpace=wrap;html=1;fontSize=22;strokeColor=none;fillColor=#BFBFBF;" vertex="1" parent="-iCXwF2Be32UM4ucyUXN-28">
          <mxGeometry x="10" width="10" height="10" as="geometry" />
        </mxCell>
        <mxCell id="-iCXwF2Be32UM4ucyUXN-32" value="" style="rounded=0;whiteSpace=wrap;html=1;fontSize=22;strokeColor=none;fillColor=#000000;" vertex="1" parent="-iCXwF2Be32UM4ucyUXN-28">
          <mxGeometry x="20" width="10" height="10" as="geometry" />
        </mxCell>
        <mxCell id="-iCXwF2Be32UM4ucyUXN-33" value="" style="rounded=0;whiteSpace=wrap;html=1;fontSize=22;strokeColor=none;fillColor=#BFBFBF;" vertex="1" parent="-iCXwF2Be32UM4ucyUXN-28">
          <mxGeometry x="30" width="10" height="10" as="geometry" />
        </mxCell>
        <mxCell id="-iCXwF2Be32UM4ucyUXN-34" value="" style="shape=curlyBracket;whiteSpace=wrap;html=1;rounded=1;flipH=1;fontSize=22;strokeColor=#000000;fillColor=#000000;rotation=-90;size=0.5;" vertex="1" parent="-iCXwF2Be32UM4ucyUXN-27">
          <mxGeometry x="15" y="30" width="20" height="50" as="geometry" />
        </mxCell>
        <mxCell id="-iCXwF2Be32UM4ucyUXN-35" value="&lt;font style=&quot;font-size: 11px;&quot;&gt;concat&lt;/font&gt;" style="rounded=1;whiteSpace=wrap;html=1;fontSize=11;strokeColor=#000000;fillColor=none;" vertex="1" parent="-iCXwF2Be32UM4ucyUXN-27">
          <mxGeometry x="2.5" y="20" width="45" height="20" as="geometry" />
        </mxCell>
        <mxCell id="-iCXwF2Be32UM4ucyUXN-36" value="" style="rounded=0;whiteSpace=wrap;html=1;fontSize=22;strokeColor=none;fillColor=#000000;" vertex="1" parent="-iCXwF2Be32UM4ucyUXN-26">
          <mxGeometry x="10" y="90" width="10" height="10" as="geometry" />
        </mxCell>
        <mxCell id="-iCXwF2Be32UM4ucyUXN-37" value="" style="rounded=0;whiteSpace=wrap;html=1;fontSize=22;strokeColor=none;fillColor=#BFBFBF;" vertex="1" parent="-iCXwF2Be32UM4ucyUXN-26">
          <mxGeometry x="10" y="100" width="10" height="10" as="geometry" />
        </mxCell>
        <mxCell id="-iCXwF2Be32UM4ucyUXN-38" value="" style="rounded=0;whiteSpace=wrap;html=1;fontSize=22;strokeColor=none;fillColor=#000000;" vertex="1" parent="-iCXwF2Be32UM4ucyUXN-26">
          <mxGeometry x="10" y="110" width="10" height="10" as="geometry" />
        </mxCell>
        <mxCell id="-iCXwF2Be32UM4ucyUXN-39" value="" style="rounded=0;whiteSpace=wrap;html=1;fontSize=22;strokeColor=none;fillColor=#BFBFBF;" vertex="1" parent="-iCXwF2Be32UM4ucyUXN-26">
          <mxGeometry x="10" y="120" width="10" height="10" as="geometry" />
        </mxCell>
        <mxCell id="-iCXwF2Be32UM4ucyUXN-40" value="" style="rounded=0;whiteSpace=wrap;html=1;fontSize=22;strokeColor=none;fillColor=#000000;" vertex="1" parent="-iCXwF2Be32UM4ucyUXN-26">
          <mxGeometry x="30" y="90" width="10" height="10" as="geometry" />
        </mxCell>
        <mxCell id="-iCXwF2Be32UM4ucyUXN-41" value="" style="rounded=0;whiteSpace=wrap;html=1;fontSize=22;strokeColor=none;fillColor=#BFBFBF;" vertex="1" parent="-iCXwF2Be32UM4ucyUXN-26">
          <mxGeometry x="30" y="100" width="10" height="10" as="geometry" />
        </mxCell>
        <mxCell id="-iCXwF2Be32UM4ucyUXN-42" value="" style="rounded=0;whiteSpace=wrap;html=1;fontSize=22;strokeColor=none;fillColor=#000000;" vertex="1" parent="-iCXwF2Be32UM4ucyUXN-26">
          <mxGeometry x="30" y="110" width="10" height="15" as="geometry" />
        </mxCell>
        <mxCell id="-iCXwF2Be32UM4ucyUXN-43" value="" style="rounded=0;whiteSpace=wrap;html=1;fontSize=22;strokeColor=none;fillColor=#BFBFBF;" vertex="1" parent="-iCXwF2Be32UM4ucyUXN-26">
          <mxGeometry x="30" y="120" width="10" height="10" as="geometry" />
        </mxCell>
        <mxCell id="-iCXwF2Be32UM4ucyUXN-44" value="" style="ellipse;whiteSpace=wrap;html=1;aspect=fixed;fontSize=11;strokeColor=#000000;fillColor=none;" vertex="1" parent="-iCXwF2Be32UM4ucyUXN-26">
          <mxGeometry x="10" y="155" width="10" height="10" as="geometry" />
        </mxCell>
        <mxCell id="-iCXwF2Be32UM4ucyUXN-45" value="" style="ellipse;whiteSpace=wrap;html=1;aspect=fixed;fontSize=11;strokeColor=#000000;fillColor=none;" vertex="1" parent="-iCXwF2Be32UM4ucyUXN-26">
          <mxGeometry x="30" y="155" width="10" height="10" as="geometry" />
        </mxCell>
        <mxCell id="-iCXwF2Be32UM4ucyUXN-46" value="" style="endArrow=classic;html=1;rounded=0;fontSize=11;exitX=0.5;exitY=0;exitDx=0;exitDy=0;entryX=0.5;entryY=1;entryDx=0;entryDy=0;" edge="1" parent="-iCXwF2Be32UM4ucyUXN-26" source="-iCXwF2Be32UM4ucyUXN-44" target="-iCXwF2Be32UM4ucyUXN-39">
          <mxGeometry width="50" height="50" relative="1" as="geometry">
            <mxPoint x="-20" y="65" as="sourcePoint" />
            <mxPoint x="30" y="15" as="targetPoint" />
          </mxGeometry>
        </mxCell>
        <mxCell id="-iCXwF2Be32UM4ucyUXN-47" value="" style="endArrow=classic;html=1;rounded=0;fontSize=11;exitX=0.5;exitY=0;exitDx=0;exitDy=0;entryX=0.5;entryY=1;entryDx=0;entryDy=0;" edge="1" parent="-iCXwF2Be32UM4ucyUXN-26" source="-iCXwF2Be32UM4ucyUXN-45" target="-iCXwF2Be32UM4ucyUXN-43">
          <mxGeometry width="50" height="50" relative="1" as="geometry">
            <mxPoint x="34.81999999999999" y="155" as="sourcePoint" />
            <mxPoint x="34.81999999999999" y="130" as="targetPoint" />
          </mxGeometry>
        </mxCell>
        <mxCell id="-iCXwF2Be32UM4ucyUXN-48" value="" style="endArrow=classic;html=1;rounded=0;fontSize=11;exitX=0.5;exitY=0;exitDx=0;exitDy=0;entryX=0.5;entryY=1;entryDx=0;entryDy=0;" edge="1" parent="-iCXwF2Be32UM4ucyUXN-26">
          <mxGeometry width="50" height="50" relative="1" as="geometry">
            <mxPoint x="24.849999999999966" y="25" as="sourcePoint" />
            <mxPoint x="24.849999999999966" as="targetPoint" />
          </mxGeometry>
        </mxCell>
        <mxCell id="-iCXwF2Be32UM4ucyUXN-49" value="UI&lt;br&gt;Features" style="text;html=1;strokeColor=none;fillColor=none;align=center;verticalAlign=middle;whiteSpace=wrap;rounded=0;fontSize=11;" vertex="1" parent="-iCXwF2Be32UM4ucyUXN-2">
          <mxGeometry y="170" width="60" height="30" as="geometry" />
        </mxCell>
        <mxCell id="-iCXwF2Be32UM4ucyUXN-50" value="User Profile&lt;br&gt;Features" style="text;html=1;strokeColor=none;fillColor=none;align=center;verticalAlign=middle;whiteSpace=wrap;rounded=0;fontSize=11;" vertex="1" parent="-iCXwF2Be32UM4ucyUXN-2">
          <mxGeometry x="70" y="170" width="65" height="30" as="geometry" />
        </mxCell>
        <mxCell id="-iCXwF2Be32UM4ucyUXN-51" value="" style="group" vertex="1" connectable="0" parent="1">
          <mxGeometry x="666.5" y="320" width="40" height="35" as="geometry" />
        </mxCell>
        <mxCell id="-iCXwF2Be32UM4ucyUXN-52" value="" style="group" vertex="1" connectable="0" parent="-iCXwF2Be32UM4ucyUXN-51">
          <mxGeometry y="25" width="40" height="10" as="geometry" />
        </mxCell>
        <mxCell id="-iCXwF2Be32UM4ucyUXN-53" value="" style="rounded=0;whiteSpace=wrap;html=1;fontSize=22;strokeColor=none;fillColor=#CDA2BE;" vertex="1" parent="-iCXwF2Be32UM4ucyUXN-52">
          <mxGeometry width="10" height="10" as="geometry" />
        </mxCell>
        <mxCell id="-iCXwF2Be32UM4ucyUXN-54" style="edgeStyle=none;rounded=0;orthogonalLoop=1;jettySize=auto;html=1;exitX=1;exitY=1;exitDx=0;exitDy=0;fontSize=22;strokeColor=none;" edge="1" parent="-iCXwF2Be32UM4ucyUXN-52" source="-iCXwF2Be32UM4ucyUXN-53" target="-iCXwF2Be32UM4ucyUXN-53">
          <mxGeometry relative="1" as="geometry" />
        </mxCell>
        <mxCell id="-iCXwF2Be32UM4ucyUXN-55" value="" style="rounded=0;whiteSpace=wrap;html=1;fontSize=22;strokeColor=none;fillColor=#FFCE9F;" vertex="1" parent="-iCXwF2Be32UM4ucyUXN-52">
          <mxGeometry x="10" width="10" height="10" as="geometry" />
        </mxCell>
        <mxCell id="-iCXwF2Be32UM4ucyUXN-56" value="" style="rounded=0;whiteSpace=wrap;html=1;fontSize=22;strokeColor=none;fillColor=#CDA2BE;" vertex="1" parent="-iCXwF2Be32UM4ucyUXN-52">
          <mxGeometry x="20" width="10" height="10" as="geometry" />
        </mxCell>
        <mxCell id="-iCXwF2Be32UM4ucyUXN-57" value="" style="rounded=0;whiteSpace=wrap;html=1;fontSize=22;strokeColor=none;fillColor=#FFCE9F;" vertex="1" parent="-iCXwF2Be32UM4ucyUXN-52">
          <mxGeometry x="30" width="10" height="10" as="geometry" />
        </mxCell>
        <mxCell id="-iCXwF2Be32UM4ucyUXN-58" value="" style="endArrow=classic;html=1;rounded=0;fontSize=11;exitX=0.5;exitY=0;exitDx=0;exitDy=0;entryX=0.5;entryY=1;entryDx=0;entryDy=0;" edge="1" parent="-iCXwF2Be32UM4ucyUXN-51">
          <mxGeometry width="50" height="50" relative="1" as="geometry">
            <mxPoint x="19.84999999999991" y="25" as="sourcePoint" />
            <mxPoint x="19.84999999999991" as="targetPoint" />
          </mxGeometry>
        </mxCell>
        <mxCell id="-iCXwF2Be32UM4ucyUXN-59" value="&lt;font style=&quot;font-size: 11px;&quot;&gt;concat&lt;/font&gt;" style="rounded=1;whiteSpace=wrap;html=1;fontSize=11;strokeColor=#000000;fillColor=none;" vertex="1" parent="1">
          <mxGeometry x="663.5" y="360" width="45" height="20" as="geometry" />
        </mxCell>
        <mxCell id="-iCXwF2Be32UM4ucyUXN-60" value="" style="shape=curlyBracket;whiteSpace=wrap;html=1;rounded=1;flipH=1;fontSize=22;strokeColor=#000000;fillColor=#000000;rotation=-90;size=0.5;" vertex="1" parent="1">
          <mxGeometry x="676" y="260" width="20" height="260" as="geometry" />
        </mxCell>
        <mxCell id="-iCXwF2Be32UM4ucyUXN-61" value="" style="group" vertex="1" connectable="0" parent="1">
          <mxGeometry x="1040" y="321.65" width="65" height="200" as="geometry" />
        </mxCell>
        <mxCell id="-iCXwF2Be32UM4ucyUXN-62" value="" style="group" vertex="1" connectable="0" parent="-iCXwF2Be32UM4ucyUXN-61">
          <mxGeometry x="5" width="50" height="165" as="geometry" />
        </mxCell>
        <mxCell id="-iCXwF2Be32UM4ucyUXN-63" value="" style="group" vertex="1" connectable="0" parent="-iCXwF2Be32UM4ucyUXN-62">
          <mxGeometry y="25" width="50" height="65" as="geometry" />
        </mxCell>
        <mxCell id="-iCXwF2Be32UM4ucyUXN-64" value="" style="group" vertex="1" connectable="0" parent="-iCXwF2Be32UM4ucyUXN-63">
          <mxGeometry x="5" width="40" height="10" as="geometry" />
        </mxCell>
        <mxCell id="-iCXwF2Be32UM4ucyUXN-65" value="" style="rounded=0;whiteSpace=wrap;html=1;fontSize=22;strokeColor=none;fillColor=#000000;" vertex="1" parent="-iCXwF2Be32UM4ucyUXN-64">
          <mxGeometry width="10" height="10" as="geometry" />
        </mxCell>
        <mxCell id="-iCXwF2Be32UM4ucyUXN-66" style="edgeStyle=none;rounded=0;orthogonalLoop=1;jettySize=auto;html=1;exitX=1;exitY=1;exitDx=0;exitDy=0;fontSize=22;strokeColor=none;" edge="1" parent="-iCXwF2Be32UM4ucyUXN-64" source="-iCXwF2Be32UM4ucyUXN-65" target="-iCXwF2Be32UM4ucyUXN-65">
          <mxGeometry relative="1" as="geometry" />
        </mxCell>
        <mxCell id="-iCXwF2Be32UM4ucyUXN-67" value="" style="rounded=0;whiteSpace=wrap;html=1;fontSize=22;strokeColor=none;fillColor=#BFBFBF;" vertex="1" parent="-iCXwF2Be32UM4ucyUXN-64">
          <mxGeometry x="10" width="10" height="10" as="geometry" />
        </mxCell>
        <mxCell id="-iCXwF2Be32UM4ucyUXN-68" value="" style="rounded=0;whiteSpace=wrap;html=1;fontSize=22;strokeColor=none;fillColor=#000000;" vertex="1" parent="-iCXwF2Be32UM4ucyUXN-64">
          <mxGeometry x="20" width="10" height="10" as="geometry" />
        </mxCell>
        <mxCell id="-iCXwF2Be32UM4ucyUXN-69" value="" style="rounded=0;whiteSpace=wrap;html=1;fontSize=22;strokeColor=none;fillColor=#BFBFBF;" vertex="1" parent="-iCXwF2Be32UM4ucyUXN-64">
          <mxGeometry x="30" width="10" height="10" as="geometry" />
        </mxCell>
        <mxCell id="-iCXwF2Be32UM4ucyUXN-70" value="" style="shape=curlyBracket;whiteSpace=wrap;html=1;rounded=1;flipH=1;fontSize=22;strokeColor=#000000;fillColor=#000000;rotation=-90;size=0.5;" vertex="1" parent="-iCXwF2Be32UM4ucyUXN-63">
          <mxGeometry x="15" y="30" width="20" height="50" as="geometry" />
        </mxCell>
        <mxCell id="-iCXwF2Be32UM4ucyUXN-71" value="&lt;font style=&quot;font-size: 11px;&quot;&gt;concat&lt;/font&gt;" style="rounded=1;whiteSpace=wrap;html=1;fontSize=11;strokeColor=#000000;fillColor=none;" vertex="1" parent="-iCXwF2Be32UM4ucyUXN-63">
          <mxGeometry x="2.5" y="20" width="45" height="20" as="geometry" />
        </mxCell>
        <mxCell id="-iCXwF2Be32UM4ucyUXN-72" value="" style="rounded=0;whiteSpace=wrap;html=1;fontSize=22;strokeColor=none;fillColor=#000000;" vertex="1" parent="-iCXwF2Be32UM4ucyUXN-62">
          <mxGeometry x="10" y="90" width="10" height="10" as="geometry" />
        </mxCell>
        <mxCell id="-iCXwF2Be32UM4ucyUXN-73" value="" style="rounded=0;whiteSpace=wrap;html=1;fontSize=22;strokeColor=none;fillColor=#BFBFBF;" vertex="1" parent="-iCXwF2Be32UM4ucyUXN-62">
          <mxGeometry x="10" y="100" width="10" height="10" as="geometry" />
        </mxCell>
        <mxCell id="-iCXwF2Be32UM4ucyUXN-74" value="" style="rounded=0;whiteSpace=wrap;html=1;fontSize=22;strokeColor=none;fillColor=#000000;" vertex="1" parent="-iCXwF2Be32UM4ucyUXN-62">
          <mxGeometry x="10" y="110" width="10" height="10" as="geometry" />
        </mxCell>
        <mxCell id="-iCXwF2Be32UM4ucyUXN-75" value="" style="rounded=0;whiteSpace=wrap;html=1;fontSize=22;strokeColor=none;fillColor=#BFBFBF;" vertex="1" parent="-iCXwF2Be32UM4ucyUXN-62">
          <mxGeometry x="10" y="120" width="10" height="10" as="geometry" />
        </mxCell>
        <mxCell id="-iCXwF2Be32UM4ucyUXN-76" value="" style="rounded=0;whiteSpace=wrap;html=1;fontSize=22;strokeColor=none;fillColor=#000000;" vertex="1" parent="-iCXwF2Be32UM4ucyUXN-62">
          <mxGeometry x="30" y="90" width="10" height="10" as="geometry" />
        </mxCell>
        <mxCell id="-iCXwF2Be32UM4ucyUXN-77" value="" style="rounded=0;whiteSpace=wrap;html=1;fontSize=22;strokeColor=none;fillColor=#BFBFBF;" vertex="1" parent="-iCXwF2Be32UM4ucyUXN-62">
          <mxGeometry x="30" y="100" width="10" height="10" as="geometry" />
        </mxCell>
        <mxCell id="-iCXwF2Be32UM4ucyUXN-78" value="" style="rounded=0;whiteSpace=wrap;html=1;fontSize=22;strokeColor=none;fillColor=#000000;" vertex="1" parent="-iCXwF2Be32UM4ucyUXN-62">
          <mxGeometry x="30" y="110" width="10" height="15" as="geometry" />
        </mxCell>
        <mxCell id="-iCXwF2Be32UM4ucyUXN-79" value="" style="rounded=0;whiteSpace=wrap;html=1;fontSize=22;strokeColor=none;fillColor=#BFBFBF;" vertex="1" parent="-iCXwF2Be32UM4ucyUXN-62">
          <mxGeometry x="30" y="120" width="10" height="10" as="geometry" />
        </mxCell>
        <mxCell id="-iCXwF2Be32UM4ucyUXN-80" value="" style="ellipse;whiteSpace=wrap;html=1;aspect=fixed;fontSize=11;strokeColor=#000000;fillColor=none;" vertex="1" parent="-iCXwF2Be32UM4ucyUXN-62">
          <mxGeometry x="10" y="155" width="10" height="10" as="geometry" />
        </mxCell>
        <mxCell id="-iCXwF2Be32UM4ucyUXN-81" value="" style="ellipse;whiteSpace=wrap;html=1;aspect=fixed;fontSize=11;strokeColor=#000000;fillColor=none;" vertex="1" parent="-iCXwF2Be32UM4ucyUXN-62">
          <mxGeometry x="30" y="155" width="10" height="10" as="geometry" />
        </mxCell>
        <mxCell id="-iCXwF2Be32UM4ucyUXN-82" value="" style="endArrow=classic;html=1;rounded=0;fontSize=11;exitX=0.5;exitY=0;exitDx=0;exitDy=0;entryX=0.5;entryY=1;entryDx=0;entryDy=0;" edge="1" parent="-iCXwF2Be32UM4ucyUXN-62" source="-iCXwF2Be32UM4ucyUXN-80" target="-iCXwF2Be32UM4ucyUXN-75">
          <mxGeometry width="50" height="50" relative="1" as="geometry">
            <mxPoint x="-20" y="65" as="sourcePoint" />
            <mxPoint x="30" y="15" as="targetPoint" />
          </mxGeometry>
        </mxCell>
        <mxCell id="-iCXwF2Be32UM4ucyUXN-83" value="" style="endArrow=classic;html=1;rounded=0;fontSize=11;exitX=0.5;exitY=0;exitDx=0;exitDy=0;entryX=0.5;entryY=1;entryDx=0;entryDy=0;" edge="1" parent="-iCXwF2Be32UM4ucyUXN-62" source="-iCXwF2Be32UM4ucyUXN-81" target="-iCXwF2Be32UM4ucyUXN-79">
          <mxGeometry width="50" height="50" relative="1" as="geometry">
            <mxPoint x="34.81999999999999" y="155" as="sourcePoint" />
            <mxPoint x="34.81999999999999" y="130" as="targetPoint" />
          </mxGeometry>
        </mxCell>
        <mxCell id="-iCXwF2Be32UM4ucyUXN-84" value="" style="endArrow=classic;html=1;rounded=0;fontSize=11;exitX=0.5;exitY=0;exitDx=0;exitDy=0;entryX=0.5;entryY=1;entryDx=0;entryDy=0;" edge="1" parent="-iCXwF2Be32UM4ucyUXN-62">
          <mxGeometry width="50" height="50" relative="1" as="geometry">
            <mxPoint x="24.849999999999966" y="25" as="sourcePoint" />
            <mxPoint x="24.849999999999966" as="targetPoint" />
          </mxGeometry>
        </mxCell>
        <mxCell id="-iCXwF2Be32UM4ucyUXN-85" value="Cross&lt;br&gt;Features" style="text;html=1;strokeColor=none;fillColor=none;align=center;verticalAlign=middle;whiteSpace=wrap;rounded=0;fontSize=11;" vertex="1" parent="-iCXwF2Be32UM4ucyUXN-61">
          <mxGeometry y="170" width="65" height="30" as="geometry" />
        </mxCell>
        <mxCell id="-iCXwF2Be32UM4ucyUXN-86" value="" style="group" vertex="1" connectable="0" parent="1">
          <mxGeometry x="580" y="431.65" width="80" height="120" as="geometry" />
        </mxCell>
        <mxCell id="-iCXwF2Be32UM4ucyUXN-87" value="" style="group" vertex="1" connectable="0" parent="-iCXwF2Be32UM4ucyUXN-86">
          <mxGeometry x="2.692307692307692" width="40" height="44.57142857142857" as="geometry" />
        </mxCell>
        <mxCell id="-iCXwF2Be32UM4ucyUXN-88" value="" style="shape=curlyBracket;whiteSpace=wrap;html=1;rounded=1;flipH=1;fontSize=22;strokeColor=#000000;fillColor=#000000;rotation=-90;size=0.5;" vertex="1" parent="-iCXwF2Be32UM4ucyUXN-87">
          <mxGeometry x="18.076923076923077" y="36.62142857142857" width="10.769230769230768" height="34.285714285714285" as="geometry" />
        </mxCell>
        <mxCell id="-iCXwF2Be32UM4ucyUXN-89" value="&lt;font style=&quot;font-size: 11px;&quot;&gt;concat&lt;/font&gt;" style="rounded=1;whiteSpace=wrap;html=1;fontSize=11;strokeColor=#000000;fillColor=none;" vertex="1" parent="-iCXwF2Be32UM4ucyUXN-87">
          <mxGeometry x="4.14" y="36.05" width="38.65" height="10.43" as="geometry" />
        </mxCell>
        <mxCell id="-iCXwF2Be32UM4ucyUXN-90" value="" style="rounded=0;whiteSpace=wrap;html=1;fontSize=22;strokeColor=none;fillColor=#CDA2BE;" vertex="1" parent="-iCXwF2Be32UM4ucyUXN-86">
          <mxGeometry x="18.076923076923077" y="60.62142857142857" width="5.384615384615384" height="6.857142857142857" as="geometry" />
        </mxCell>
        <mxCell id="-iCXwF2Be32UM4ucyUXN-91" value="" style="rounded=0;whiteSpace=wrap;html=1;fontSize=22;strokeColor=none;fillColor=#E6D0DE;" vertex="1" parent="-iCXwF2Be32UM4ucyUXN-86">
          <mxGeometry x="18.076923076923077" y="67.47857142857143" width="5.384615384615384" height="6.857142857142857" as="geometry" />
        </mxCell>
        <mxCell id="-iCXwF2Be32UM4ucyUXN-92" value="" style="rounded=0;whiteSpace=wrap;html=1;fontSize=22;strokeColor=none;fillColor=#CDA2BE;" vertex="1" parent="-iCXwF2Be32UM4ucyUXN-86">
          <mxGeometry x="18.076923076923077" y="74.33571428571429" width="5.384615384615384" height="6.857142857142857" as="geometry" />
        </mxCell>
        <mxCell id="-iCXwF2Be32UM4ucyUXN-93" value="" style="rounded=0;whiteSpace=wrap;html=1;fontSize=22;strokeColor=none;fillColor=#E6D0DE;" vertex="1" parent="-iCXwF2Be32UM4ucyUXN-86">
          <mxGeometry x="18.076923076923077" y="81.19285714285714" width="5.384615384615384" height="6.857142857142857" as="geometry" />
        </mxCell>
        <mxCell id="-iCXwF2Be32UM4ucyUXN-94" value="" style="rounded=0;whiteSpace=wrap;html=1;fontSize=22;strokeColor=none;fillColor=#FFB570;" vertex="1" parent="-iCXwF2Be32UM4ucyUXN-86">
          <mxGeometry x="29.996153846153845" y="60.62142857142857" width="5.384615384615384" height="6.857142857142857" as="geometry" />
        </mxCell>
        <mxCell id="-iCXwF2Be32UM4ucyUXN-95" value="" style="rounded=0;whiteSpace=wrap;html=1;fontSize=22;strokeColor=none;fillColor=#FFCE9F;" vertex="1" parent="-iCXwF2Be32UM4ucyUXN-86">
          <mxGeometry x="29.996153846153845" y="67.47857142857143" width="5.384615384615384" height="6.857142857142857" as="geometry" />
        </mxCell>
        <mxCell id="-iCXwF2Be32UM4ucyUXN-96" value="" style="rounded=0;whiteSpace=wrap;html=1;fontSize=22;strokeColor=none;fillColor=#FFB570;" vertex="1" parent="-iCXwF2Be32UM4ucyUXN-86">
          <mxGeometry x="29.996153846153845" y="74.33571428571429" width="5.384615384615384" height="10.285714285714285" as="geometry" />
        </mxCell>
        <mxCell id="-iCXwF2Be32UM4ucyUXN-97" value="" style="rounded=0;whiteSpace=wrap;html=1;fontSize=22;strokeColor=none;fillColor=#FFCE9F;" vertex="1" parent="-iCXwF2Be32UM4ucyUXN-86">
          <mxGeometry x="29.996153846153845" y="81.19285714285714" width="5.384615384615384" height="6.857142857142857" as="geometry" />
        </mxCell>
        <mxCell id="-iCXwF2Be32UM4ucyUXN-98" value="" style="ellipse;whiteSpace=wrap;html=1;aspect=fixed;fontSize=11;strokeColor=#000000;fillColor=none;" vertex="1" parent="-iCXwF2Be32UM4ucyUXN-86">
          <mxGeometry x="18.076923076923077" y="105.19285714285714" width="4.615384615384615" height="4.615384615384615" as="geometry" />
        </mxCell>
        <mxCell id="-iCXwF2Be32UM4ucyUXN-99" value="" style="ellipse;whiteSpace=wrap;html=1;aspect=fixed;fontSize=11;strokeColor=#000000;fillColor=none;" vertex="1" parent="-iCXwF2Be32UM4ucyUXN-86">
          <mxGeometry x="29.996153846153845" y="105.19285714285714" width="4.615384615384615" height="4.615384615384615" as="geometry" />
        </mxCell>
        <mxCell id="-iCXwF2Be32UM4ucyUXN-100" value="" style="endArrow=classic;html=1;rounded=0;fontSize=11;exitX=0.5;exitY=0;exitDx=0;exitDy=0;entryX=0.5;entryY=1;entryDx=0;entryDy=0;" edge="1" parent="-iCXwF2Be32UM4ucyUXN-86" source="-iCXwF2Be32UM4ucyUXN-98" target="-iCXwF2Be32UM4ucyUXN-93">
          <mxGeometry width="50" height="50" relative="1" as="geometry">
            <mxPoint x="-313.07692307692304" y="-169.09285714285713" as="sourcePoint" />
            <mxPoint x="-286.15384615384613" y="-203.3785714285714" as="targetPoint" />
          </mxGeometry>
        </mxCell>
        <mxCell id="-iCXwF2Be32UM4ucyUXN-101" value="" style="endArrow=classic;html=1;rounded=0;fontSize=11;exitX=0.5;exitY=0;exitDx=0;exitDy=0;entryX=0.5;entryY=1;entryDx=0;entryDy=0;" edge="1" parent="-iCXwF2Be32UM4ucyUXN-86" source="-iCXwF2Be32UM4ucyUXN-99" target="-iCXwF2Be32UM4ucyUXN-97">
          <mxGeometry width="50" height="50" relative="1" as="geometry">
            <mxPoint x="-282.4084615384616" y="-107.37857142857142" as="sourcePoint" />
            <mxPoint x="-282.4084615384616" y="-124.52142857142854" as="targetPoint" />
          </mxGeometry>
        </mxCell>
        <mxCell id="-iCXwF2Be32UM4ucyUXN-102" value="&lt;font style=&quot;font-size: 9px;&quot; face=&quot;Georgia&quot;&gt;&lt;i&gt;Item &lt;sub&gt;s1&lt;/sub&gt;&lt;/i&gt;&lt;/font&gt;" style="text;html=1;strokeColor=none;fillColor=none;align=center;verticalAlign=middle;whiteSpace=wrap;rounded=0;fontSize=11;" vertex="1" parent="-iCXwF2Be32UM4ucyUXN-86">
          <mxGeometry x="-7.309999999999999" y="105.19000000000001" width="60" height="20.57" as="geometry" />
        </mxCell>
        <mxCell id="-iCXwF2Be32UM4ucyUXN-103" value="" style="endArrow=classic;html=1;rounded=0;fontSize=11;edgeStyle=orthogonalEdgeStyle;strokeColor=#FF8000;" edge="1" parent="-iCXwF2Be32UM4ucyUXN-86">
          <mxGeometry width="50" height="50" relative="1" as="geometry">
            <mxPoint x="352" y="-59.64999999999998" as="sourcePoint" />
            <mxPoint x="53" y="10" as="targetPoint" />
            <Array as="points">
              <mxPoint x="292" y="-60" />
              <mxPoint x="292" y="30" />
              <mxPoint x="53" y="30" />
            </Array>
          </mxGeometry>
        </mxCell>
        <mxCell id="-iCXwF2Be32UM4ucyUXN-104" style="edgeStyle=orthogonalEdgeStyle;rounded=0;orthogonalLoop=1;jettySize=auto;html=1;exitX=0.5;exitY=0;exitDx=0;exitDy=0;entryX=1;entryY=0.5;entryDx=0;entryDy=0;fontFamily=Georgia;fontSize=11;" edge="1" parent="1" source="-iCXwF2Be32UM4ucyUXN-105" target="-iCXwF2Be32UM4ucyUXN-107">
          <mxGeometry relative="1" as="geometry">
            <Array as="points">
              <mxPoint x="617" y="421.65" />
            </Array>
          </mxGeometry>
        </mxCell>
        <mxCell id="-iCXwF2Be32UM4ucyUXN-105" value="&lt;font style=&quot;font-size: 10px;&quot;&gt;Activation&lt;br&gt;&lt;/font&gt;" style="rounded=1;whiteSpace=wrap;html=1;fontSize=11;strokeColor=#000000;fillColor=none;" vertex="1" parent="1">
          <mxGeometry x="588.0799999999999" y="431.65" width="57.92" height="10" as="geometry" />
        </mxCell>
        <mxCell id="-iCXwF2Be32UM4ucyUXN-106" style="edgeStyle=none;rounded=0;orthogonalLoop=1;jettySize=auto;html=1;exitX=0.5;exitY=0;exitDx=0;exitDy=0;fontFamily=Georgia;fontSize=10;" edge="1" parent="1" source="-iCXwF2Be32UM4ucyUXN-89">
          <mxGeometry relative="1" as="geometry">
            <mxPoint x="606" y="441.6500000000001" as="targetPoint" />
          </mxGeometry>
        </mxCell>
        <mxCell id="-iCXwF2Be32UM4ucyUXN-107" value="&lt;font style=&quot;font-size: 11px;&quot;&gt;✖️&lt;/font&gt;" style="ellipse;whiteSpace=wrap;html=1;aspect=fixed;fontStyle=0" vertex="1" parent="1">
          <mxGeometry x="571" y="416.65" width="10" height="10" as="geometry" />
        </mxCell>
        <mxCell id="-iCXwF2Be32UM4ucyUXN-108" style="edgeStyle=orthogonalEdgeStyle;rounded=0;orthogonalLoop=1;jettySize=auto;html=1;exitX=0;exitY=0.5;exitDx=0;exitDy=0;entryX=0.5;entryY=1;entryDx=0;entryDy=0;fontFamily=Georgia;fontSize=11;" edge="1" parent="1" source="-iCXwF2Be32UM4ucyUXN-89" target="-iCXwF2Be32UM4ucyUXN-107">
          <mxGeometry relative="1" as="geometry">
            <Array as="points">
              <mxPoint x="576" y="472.65" />
            </Array>
          </mxGeometry>
        </mxCell>
        <mxCell id="-iCXwF2Be32UM4ucyUXN-109" value="" style="group" vertex="1" connectable="0" parent="1">
          <mxGeometry x="659" y="431.65" width="80" height="120" as="geometry" />
        </mxCell>
        <mxCell id="-iCXwF2Be32UM4ucyUXN-110" value="" style="group" vertex="1" connectable="0" parent="-iCXwF2Be32UM4ucyUXN-109">
          <mxGeometry x="2.692307692307692" width="40" height="44.57142857142857" as="geometry" />
        </mxCell>
        <mxCell id="-iCXwF2Be32UM4ucyUXN-111" value="" style="shape=curlyBracket;whiteSpace=wrap;html=1;rounded=1;flipH=1;fontSize=22;strokeColor=#000000;fillColor=#000000;rotation=-90;size=0.5;" vertex="1" parent="-iCXwF2Be32UM4ucyUXN-110">
          <mxGeometry x="18.076923076923077" y="36.62142857142857" width="10.769230769230768" height="34.285714285714285" as="geometry" />
        </mxCell>
        <mxCell id="-iCXwF2Be32UM4ucyUXN-112" value="&lt;font style=&quot;font-size: 11px;&quot;&gt;concat&lt;/font&gt;" style="rounded=1;whiteSpace=wrap;html=1;fontSize=11;strokeColor=#000000;fillColor=none;" vertex="1" parent="-iCXwF2Be32UM4ucyUXN-110">
          <mxGeometry x="4.14" y="36.05" width="38.65" height="10.43" as="geometry" />
        </mxCell>
        <mxCell id="-iCXwF2Be32UM4ucyUXN-113" value="" style="rounded=0;whiteSpace=wrap;html=1;fontSize=22;strokeColor=none;fillColor=#CDA2BE;" vertex="1" parent="-iCXwF2Be32UM4ucyUXN-109">
          <mxGeometry x="18.076923076923077" y="60.62142857142857" width="5.384615384615384" height="6.857142857142857" as="geometry" />
        </mxCell>
        <mxCell id="-iCXwF2Be32UM4ucyUXN-114" value="" style="rounded=0;whiteSpace=wrap;html=1;fontSize=22;strokeColor=none;fillColor=#E6D0DE;" vertex="1" parent="-iCXwF2Be32UM4ucyUXN-109">
          <mxGeometry x="18.076923076923077" y="67.47857142857143" width="5.384615384615384" height="6.857142857142857" as="geometry" />
        </mxCell>
        <mxCell id="-iCXwF2Be32UM4ucyUXN-115" value="" style="rounded=0;whiteSpace=wrap;html=1;fontSize=22;strokeColor=none;fillColor=#CDA2BE;" vertex="1" parent="-iCXwF2Be32UM4ucyUXN-109">
          <mxGeometry x="18.076923076923077" y="74.33571428571429" width="5.384615384615384" height="6.857142857142857" as="geometry" />
        </mxCell>
        <mxCell id="-iCXwF2Be32UM4ucyUXN-116" value="" style="rounded=0;whiteSpace=wrap;html=1;fontSize=22;strokeColor=none;fillColor=#E6D0DE;" vertex="1" parent="-iCXwF2Be32UM4ucyUXN-109">
          <mxGeometry x="18.076923076923077" y="81.19285714285714" width="5.384615384615384" height="6.857142857142857" as="geometry" />
        </mxCell>
        <mxCell id="-iCXwF2Be32UM4ucyUXN-117" value="" style="rounded=0;whiteSpace=wrap;html=1;fontSize=22;strokeColor=none;fillColor=#FFB570;" vertex="1" parent="-iCXwF2Be32UM4ucyUXN-109">
          <mxGeometry x="29.996153846153845" y="60.62142857142857" width="5.384615384615384" height="6.857142857142857" as="geometry" />
        </mxCell>
        <mxCell id="-iCXwF2Be32UM4ucyUXN-118" value="" style="rounded=0;whiteSpace=wrap;html=1;fontSize=22;strokeColor=none;fillColor=#FFCE9F;" vertex="1" parent="-iCXwF2Be32UM4ucyUXN-109">
          <mxGeometry x="29.996153846153845" y="67.47857142857143" width="5.384615384615384" height="6.857142857142857" as="geometry" />
        </mxCell>
        <mxCell id="-iCXwF2Be32UM4ucyUXN-119" value="" style="rounded=0;whiteSpace=wrap;html=1;fontSize=22;strokeColor=none;fillColor=#FFB570;" vertex="1" parent="-iCXwF2Be32UM4ucyUXN-109">
          <mxGeometry x="29.996153846153845" y="74.33571428571429" width="5.384615384615384" height="10.285714285714285" as="geometry" />
        </mxCell>
        <mxCell id="-iCXwF2Be32UM4ucyUXN-120" value="" style="rounded=0;whiteSpace=wrap;html=1;fontSize=22;strokeColor=none;fillColor=#FFCE9F;" vertex="1" parent="-iCXwF2Be32UM4ucyUXN-109">
          <mxGeometry x="29.996153846153845" y="81.19285714285714" width="5.384615384615384" height="6.857142857142857" as="geometry" />
        </mxCell>
        <mxCell id="-iCXwF2Be32UM4ucyUXN-121" value="" style="ellipse;whiteSpace=wrap;html=1;aspect=fixed;fontSize=11;strokeColor=#000000;fillColor=none;" vertex="1" parent="-iCXwF2Be32UM4ucyUXN-109">
          <mxGeometry x="18.076923076923077" y="105.19285714285714" width="4.615384615384615" height="4.615384615384615" as="geometry" />
        </mxCell>
        <mxCell id="-iCXwF2Be32UM4ucyUXN-122" value="" style="ellipse;whiteSpace=wrap;html=1;aspect=fixed;fontSize=11;strokeColor=#000000;fillColor=none;" vertex="1" parent="-iCXwF2Be32UM4ucyUXN-109">
          <mxGeometry x="29.996153846153845" y="105.19285714285714" width="4.615384615384615" height="4.615384615384615" as="geometry" />
        </mxCell>
        <mxCell id="-iCXwF2Be32UM4ucyUXN-123" value="" style="endArrow=classic;html=1;rounded=0;fontSize=11;exitX=0.5;exitY=0;exitDx=0;exitDy=0;entryX=0.5;entryY=1;entryDx=0;entryDy=0;" edge="1" parent="-iCXwF2Be32UM4ucyUXN-109" source="-iCXwF2Be32UM4ucyUXN-121" target="-iCXwF2Be32UM4ucyUXN-116">
          <mxGeometry width="50" height="50" relative="1" as="geometry">
            <mxPoint x="-313.07692307692304" y="-169.09285714285713" as="sourcePoint" />
            <mxPoint x="-286.15384615384613" y="-203.3785714285714" as="targetPoint" />
          </mxGeometry>
        </mxCell>
        <mxCell id="-iCXwF2Be32UM4ucyUXN-124" value="" style="endArrow=classic;html=1;rounded=0;fontSize=11;exitX=0.5;exitY=0;exitDx=0;exitDy=0;entryX=0.5;entryY=1;entryDx=0;entryDy=0;" edge="1" parent="-iCXwF2Be32UM4ucyUXN-109" source="-iCXwF2Be32UM4ucyUXN-122" target="-iCXwF2Be32UM4ucyUXN-120">
          <mxGeometry width="50" height="50" relative="1" as="geometry">
            <mxPoint x="-282.4084615384616" y="-107.37857142857142" as="sourcePoint" />
            <mxPoint x="-282.4084615384616" y="-124.52142857142854" as="targetPoint" />
          </mxGeometry>
        </mxCell>
        <mxCell id="-iCXwF2Be32UM4ucyUXN-125" value="&lt;font style=&quot;font-size: 9px;&quot; face=&quot;Georgia&quot;&gt;&lt;i&gt;Item &lt;sub&gt;s2&lt;/sub&gt;&lt;/i&gt;&lt;/font&gt;" style="text;html=1;strokeColor=none;fillColor=none;align=center;verticalAlign=middle;whiteSpace=wrap;rounded=0;fontSize=11;" vertex="1" parent="-iCXwF2Be32UM4ucyUXN-109">
          <mxGeometry x="-5.309999999999999" y="105.19000000000001" width="60" height="20.57" as="geometry" />
        </mxCell>
        <mxCell id="-iCXwF2Be32UM4ucyUXN-126" style="edgeStyle=orthogonalEdgeStyle;rounded=0;orthogonalLoop=1;jettySize=auto;html=1;exitX=0.5;exitY=0;exitDx=0;exitDy=0;entryX=1;entryY=0.5;entryDx=0;entryDy=0;fontFamily=Georgia;fontSize=11;" edge="1" parent="1" source="-iCXwF2Be32UM4ucyUXN-127" target="-iCXwF2Be32UM4ucyUXN-129">
          <mxGeometry relative="1" as="geometry">
            <Array as="points">
              <mxPoint x="696" y="421.65" />
            </Array>
          </mxGeometry>
        </mxCell>
        <mxCell id="-iCXwF2Be32UM4ucyUXN-127" value="&lt;font style=&quot;font-size: 10px;&quot;&gt;Activation&lt;br&gt;&lt;/font&gt;" style="rounded=1;whiteSpace=wrap;html=1;fontSize=11;strokeColor=#000000;fillColor=none;" vertex="1" parent="1">
          <mxGeometry x="667.0799999999999" y="431.65" width="57.92" height="10" as="geometry" />
        </mxCell>
        <mxCell id="-iCXwF2Be32UM4ucyUXN-128" style="edgeStyle=none;rounded=0;orthogonalLoop=1;jettySize=auto;html=1;exitX=0.5;exitY=0;exitDx=0;exitDy=0;fontFamily=Georgia;fontSize=10;" edge="1" parent="1" source="-iCXwF2Be32UM4ucyUXN-112">
          <mxGeometry relative="1" as="geometry">
            <mxPoint x="685" y="441.6500000000001" as="targetPoint" />
          </mxGeometry>
        </mxCell>
        <mxCell id="-iCXwF2Be32UM4ucyUXN-129" value="&lt;font style=&quot;font-size: 11px;&quot;&gt;✖️&lt;/font&gt;" style="ellipse;whiteSpace=wrap;html=1;aspect=fixed;fontStyle=0" vertex="1" parent="1">
          <mxGeometry x="650" y="416.65" width="10" height="10" as="geometry" />
        </mxCell>
        <mxCell id="-iCXwF2Be32UM4ucyUXN-130" style="edgeStyle=orthogonalEdgeStyle;rounded=0;orthogonalLoop=1;jettySize=auto;html=1;exitX=0;exitY=0.5;exitDx=0;exitDy=0;entryX=0.5;entryY=1;entryDx=0;entryDy=0;fontFamily=Georgia;fontSize=11;" edge="1" parent="1" source="-iCXwF2Be32UM4ucyUXN-112" target="-iCXwF2Be32UM4ucyUXN-129">
          <mxGeometry relative="1" as="geometry">
            <Array as="points">
              <mxPoint x="655" y="472.65" />
            </Array>
          </mxGeometry>
        </mxCell>
        <mxCell id="-iCXwF2Be32UM4ucyUXN-131" value="" style="endArrow=classic;html=1;rounded=0;fontFamily=Georgia;fontSize=11;strokeColor=#FF8000;entryX=0.75;entryY=1;entryDx=0;entryDy=0;" edge="1" parent="1" target="-iCXwF2Be32UM4ucyUXN-127">
          <mxGeometry width="50" height="50" relative="1" as="geometry">
            <mxPoint x="711" y="461.6500000000001" as="sourcePoint" />
            <mxPoint x="746" y="451.65" as="targetPoint" />
          </mxGeometry>
        </mxCell>
        <mxCell id="-iCXwF2Be32UM4ucyUXN-132" value="" style="group" vertex="1" connectable="0" parent="1">
          <mxGeometry x="906.5" y="345" width="50" height="65" as="geometry" />
        </mxCell>
        <mxCell id="-iCXwF2Be32UM4ucyUXN-133" value="" style="shape=curlyBracket;whiteSpace=wrap;html=1;rounded=1;flipH=1;fontSize=22;strokeColor=#000000;fillColor=#000000;rotation=-90;size=0.5;" vertex="1" parent="-iCXwF2Be32UM4ucyUXN-132">
          <mxGeometry x="12.5" y="75" width="20" height="50" as="geometry" />
        </mxCell>
        <mxCell id="-iCXwF2Be32UM4ucyUXN-134" value="&lt;font style=&quot;font-size: 11px;&quot;&gt;concat&lt;/font&gt;" style="rounded=1;whiteSpace=wrap;html=1;fontSize=11;strokeColor=#000000;fillColor=none;" vertex="1" parent="-iCXwF2Be32UM4ucyUXN-132">
          <mxGeometry y="65" width="45" height="20" as="geometry" />
        </mxCell>
        <mxCell id="-iCXwF2Be32UM4ucyUXN-135" value="" style="group" vertex="1" connectable="0" parent="-iCXwF2Be32UM4ucyUXN-132">
          <mxGeometry x="5" y="42" width="40" height="10" as="geometry" />
        </mxCell>
        <mxCell id="-iCXwF2Be32UM4ucyUXN-136" value="" style="rounded=0;whiteSpace=wrap;html=1;fontSize=22;strokeColor=none;fillColor=#CDA2BE;" vertex="1" parent="-iCXwF2Be32UM4ucyUXN-135">
          <mxGeometry width="10" height="10" as="geometry" />
        </mxCell>
        <mxCell id="-iCXwF2Be32UM4ucyUXN-137" style="edgeStyle=none;rounded=0;orthogonalLoop=1;jettySize=auto;html=1;exitX=1;exitY=1;exitDx=0;exitDy=0;fontSize=22;strokeColor=none;" edge="1" parent="-iCXwF2Be32UM4ucyUXN-135" source="-iCXwF2Be32UM4ucyUXN-136" target="-iCXwF2Be32UM4ucyUXN-136">
          <mxGeometry relative="1" as="geometry" />
        </mxCell>
        <mxCell id="-iCXwF2Be32UM4ucyUXN-138" value="" style="rounded=0;whiteSpace=wrap;html=1;fontSize=22;strokeColor=none;fillColor=#FFCE9F;" vertex="1" parent="-iCXwF2Be32UM4ucyUXN-135">
          <mxGeometry x="10" width="10" height="10" as="geometry" />
        </mxCell>
        <mxCell id="-iCXwF2Be32UM4ucyUXN-139" value="" style="rounded=0;whiteSpace=wrap;html=1;fontSize=22;strokeColor=none;fillColor=#CDA2BE;" vertex="1" parent="-iCXwF2Be32UM4ucyUXN-135">
          <mxGeometry x="20" width="10" height="10" as="geometry" />
        </mxCell>
        <mxCell id="-iCXwF2Be32UM4ucyUXN-140" value="" style="rounded=0;whiteSpace=wrap;html=1;fontSize=22;strokeColor=none;fillColor=#FFCE9F;" vertex="1" parent="-iCXwF2Be32UM4ucyUXN-135">
          <mxGeometry x="30" width="10" height="10" as="geometry" />
        </mxCell>
        <mxCell id="-iCXwF2Be32UM4ucyUXN-141" value="" style="rounded=0;whiteSpace=wrap;html=1;fontSize=22;strokeColor=none;fillColor=#CDA2BE;" vertex="1" parent="1">
          <mxGeometry x="914" y="455" width="10" height="10" as="geometry" />
        </mxCell>
        <mxCell id="-iCXwF2Be32UM4ucyUXN-142" value="" style="rounded=0;whiteSpace=wrap;html=1;fontSize=22;strokeColor=none;fillColor=#E6D0DE;" vertex="1" parent="1">
          <mxGeometry x="914" y="465" width="10" height="10" as="geometry" />
        </mxCell>
        <mxCell id="-iCXwF2Be32UM4ucyUXN-143" value="" style="rounded=0;whiteSpace=wrap;html=1;fontSize=22;strokeColor=none;fillColor=#CDA2BE;" vertex="1" parent="1">
          <mxGeometry x="914" y="475" width="10" height="10" as="geometry" />
        </mxCell>
        <mxCell id="-iCXwF2Be32UM4ucyUXN-144" value="" style="rounded=0;whiteSpace=wrap;html=1;fontSize=22;strokeColor=none;fillColor=#E6D0DE;" vertex="1" parent="1">
          <mxGeometry x="914" y="485" width="10" height="10" as="geometry" />
        </mxCell>
        <mxCell id="-iCXwF2Be32UM4ucyUXN-145" value="" style="rounded=0;whiteSpace=wrap;html=1;fontSize=22;strokeColor=none;fillColor=#FFB570;" vertex="1" parent="1">
          <mxGeometry x="934" y="455" width="10" height="10" as="geometry" />
        </mxCell>
        <mxCell id="-iCXwF2Be32UM4ucyUXN-146" value="" style="rounded=0;whiteSpace=wrap;html=1;fontSize=22;strokeColor=none;fillColor=#FFCE9F;" vertex="1" parent="1">
          <mxGeometry x="934" y="465" width="10" height="10" as="geometry" />
        </mxCell>
        <mxCell id="-iCXwF2Be32UM4ucyUXN-147" value="" style="rounded=0;whiteSpace=wrap;html=1;fontSize=22;strokeColor=none;fillColor=#FFB570;" vertex="1" parent="1">
          <mxGeometry x="934" y="475" width="10" height="15" as="geometry" />
        </mxCell>
        <mxCell id="-iCXwF2Be32UM4ucyUXN-148" value="" style="rounded=0;whiteSpace=wrap;html=1;fontSize=22;strokeColor=none;fillColor=#FFCE9F;" vertex="1" parent="1">
          <mxGeometry x="934" y="485" width="10" height="10" as="geometry" />
        </mxCell>
        <mxCell id="-iCXwF2Be32UM4ucyUXN-149" value="" style="ellipse;whiteSpace=wrap;html=1;aspect=fixed;fontSize=11;strokeColor=#000000;fillColor=none;" vertex="1" parent="1">
          <mxGeometry x="914" y="520" width="10" height="10" as="geometry" />
        </mxCell>
        <mxCell id="-iCXwF2Be32UM4ucyUXN-150" value="" style="ellipse;whiteSpace=wrap;html=1;aspect=fixed;fontSize=11;strokeColor=#000000;fillColor=none;" vertex="1" parent="1">
          <mxGeometry x="934" y="520" width="10" height="10" as="geometry" />
        </mxCell>
        <mxCell id="-iCXwF2Be32UM4ucyUXN-151" value="" style="endArrow=classic;html=1;rounded=0;fontSize=11;exitX=0.5;exitY=0;exitDx=0;exitDy=0;entryX=0.5;entryY=1;entryDx=0;entryDy=0;" edge="1" parent="1" source="-iCXwF2Be32UM4ucyUXN-149" target="-iCXwF2Be32UM4ucyUXN-144">
          <mxGeometry width="50" height="50" relative="1" as="geometry">
            <mxPoint x="884" y="430" as="sourcePoint" />
            <mxPoint x="934" y="380" as="targetPoint" />
          </mxGeometry>
        </mxCell>
        <mxCell id="-iCXwF2Be32UM4ucyUXN-152" value="" style="endArrow=classic;html=1;rounded=0;fontSize=11;exitX=0.5;exitY=0;exitDx=0;exitDy=0;entryX=0.5;entryY=1;entryDx=0;entryDy=0;" edge="1" parent="1" source="-iCXwF2Be32UM4ucyUXN-150" target="-iCXwF2Be32UM4ucyUXN-148">
          <mxGeometry width="50" height="50" relative="1" as="geometry">
            <mxPoint x="938.8199999999999" y="520" as="sourcePoint" />
            <mxPoint x="938.8199999999999" y="495" as="targetPoint" />
          </mxGeometry>
        </mxCell>
        <mxCell id="-iCXwF2Be32UM4ucyUXN-153" value="Item&lt;br&gt;Features" style="text;html=1;strokeColor=none;fillColor=none;align=center;verticalAlign=middle;whiteSpace=wrap;rounded=0;fontSize=11;" vertex="1" parent="1">
          <mxGeometry x="899" y="535" width="65" height="30" as="geometry" />
        </mxCell>
        <mxCell id="-iCXwF2Be32UM4ucyUXN-154" value="" style="endArrow=classic;html=1;rounded=0;fontFamily=Georgia;fontSize=11;strokeColor=#000000;exitX=0;exitY=0;exitDx=0;exitDy=0;" edge="1" parent="1" source="-iCXwF2Be32UM4ucyUXN-139">
          <mxGeometry width="50" height="50" relative="1" as="geometry">
            <mxPoint x="932" y="390" as="sourcePoint" />
            <mxPoint x="932" y="319.9999999999998" as="targetPoint" />
          </mxGeometry>
        </mxCell>
        <mxCell id="-iCXwF2Be32UM4ucyUXN-155" value="" style="endArrow=classic;html=1;rounded=0;fontFamily=Georgia;fontSize=11;strokeColor=#000000;exitX=0.5;exitY=0;exitDx=0;exitDy=0;entryX=0.547;entryY=0.143;entryDx=0;entryDy=0;entryPerimeter=0;" edge="1" parent="1" source="-iCXwF2Be32UM4ucyUXN-107">
          <mxGeometry width="50" height="50" relative="1" as="geometry">
            <mxPoint x="536" y="461.65" as="sourcePoint" />
            <mxPoint x="575.7399999999998" y="402.5899999999999" as="targetPoint" />
          </mxGeometry>
        </mxCell>
        <mxCell id="-iCXwF2Be32UM4ucyUXN-156" value="" style="endArrow=classic;html=1;rounded=0;fontFamily=Georgia;fontSize=11;strokeColor=#000000;exitX=0.5;exitY=0;exitDx=0;exitDy=0;entryX=0.547;entryY=0.143;entryDx=0;entryDy=0;entryPerimeter=0;" edge="1" parent="1">
          <mxGeometry width="50" height="50" relative="1" as="geometry">
            <mxPoint x="655.1199999999999" y="416.6500000000001" as="sourcePoint" />
            <mxPoint x="654.8600000000001" y="402.5899999999999" as="targetPoint" />
          </mxGeometry>
        </mxCell>
        <mxCell id="-iCXwF2Be32UM4ucyUXN-157" value="" style="group" vertex="1" connectable="0" parent="1">
          <mxGeometry x="814" y="430" width="80" height="120" as="geometry" />
        </mxCell>
        <mxCell id="-iCXwF2Be32UM4ucyUXN-158" value="" style="group" vertex="1" connectable="0" parent="-iCXwF2Be32UM4ucyUXN-157">
          <mxGeometry x="-30.307692307692307" y="1.65" width="40" height="44.57142857142857" as="geometry" />
        </mxCell>
        <mxCell id="-iCXwF2Be32UM4ucyUXN-159" value="" style="shape=curlyBracket;whiteSpace=wrap;html=1;rounded=1;flipH=1;fontSize=22;strokeColor=#000000;fillColor=#000000;rotation=-90;size=0.5;" vertex="1" parent="-iCXwF2Be32UM4ucyUXN-158">
          <mxGeometry x="18.076923076923077" y="36.62142857142857" width="10.769230769230768" height="34.285714285714285" as="geometry" />
        </mxCell>
        <mxCell id="-iCXwF2Be32UM4ucyUXN-160" value="&lt;font style=&quot;font-size: 11px;&quot;&gt;concat&lt;/font&gt;" style="rounded=1;whiteSpace=wrap;html=1;fontSize=11;strokeColor=#000000;fillColor=none;" vertex="1" parent="-iCXwF2Be32UM4ucyUXN-158">
          <mxGeometry x="4.14" y="36.05" width="38.65" height="10.43" as="geometry" />
        </mxCell>
        <mxCell id="-iCXwF2Be32UM4ucyUXN-161" value="" style="rounded=0;whiteSpace=wrap;html=1;fontSize=22;strokeColor=none;fillColor=#CDA2BE;" vertex="1" parent="-iCXwF2Be32UM4ucyUXN-157">
          <mxGeometry x="-14.92307692307692" y="62.271428571428565" width="5.384615384615384" height="6.857142857142857" as="geometry" />
        </mxCell>
        <mxCell id="-iCXwF2Be32UM4ucyUXN-162" value="" style="rounded=0;whiteSpace=wrap;html=1;fontSize=22;strokeColor=none;fillColor=#E6D0DE;" vertex="1" parent="-iCXwF2Be32UM4ucyUXN-157">
          <mxGeometry x="-14.92307692307692" y="69.12857142857143" width="5.384615384615384" height="6.857142857142857" as="geometry" />
        </mxCell>
        <mxCell id="-iCXwF2Be32UM4ucyUXN-163" value="" style="rounded=0;whiteSpace=wrap;html=1;fontSize=22;strokeColor=none;fillColor=#CDA2BE;" vertex="1" parent="-iCXwF2Be32UM4ucyUXN-157">
          <mxGeometry x="-14.92307692307692" y="75.9857142857143" width="5.384615384615384" height="6.857142857142857" as="geometry" />
        </mxCell>
        <mxCell id="-iCXwF2Be32UM4ucyUXN-164" value="" style="rounded=0;whiteSpace=wrap;html=1;fontSize=22;strokeColor=none;fillColor=#E6D0DE;" vertex="1" parent="-iCXwF2Be32UM4ucyUXN-157">
          <mxGeometry x="-14.92307692307692" y="82.84285714285714" width="5.384615384615384" height="6.857142857142857" as="geometry" />
        </mxCell>
        <mxCell id="-iCXwF2Be32UM4ucyUXN-165" value="" style="rounded=0;whiteSpace=wrap;html=1;fontSize=22;strokeColor=none;fillColor=#FFB570;" vertex="1" parent="-iCXwF2Be32UM4ucyUXN-157">
          <mxGeometry x="-3.0038461538461547" y="62.271428571428565" width="5.384615384615384" height="6.857142857142857" as="geometry" />
        </mxCell>
        <mxCell id="-iCXwF2Be32UM4ucyUXN-166" value="" style="rounded=0;whiteSpace=wrap;html=1;fontSize=22;strokeColor=none;fillColor=#FFCE9F;" vertex="1" parent="-iCXwF2Be32UM4ucyUXN-157">
          <mxGeometry x="-3.0038461538461547" y="69.12857142857143" width="5.384615384615384" height="6.857142857142857" as="geometry" />
        </mxCell>
        <mxCell id="-iCXwF2Be32UM4ucyUXN-167" value="" style="rounded=0;whiteSpace=wrap;html=1;fontSize=22;strokeColor=none;fillColor=#FFB570;" vertex="1" parent="-iCXwF2Be32UM4ucyUXN-157">
          <mxGeometry x="-3.0038461538461547" y="75.9857142857143" width="5.384615384615384" height="10.285714285714285" as="geometry" />
        </mxCell>
        <mxCell id="-iCXwF2Be32UM4ucyUXN-168" value="" style="rounded=0;whiteSpace=wrap;html=1;fontSize=22;strokeColor=none;fillColor=#FFCE9F;" vertex="1" parent="-iCXwF2Be32UM4ucyUXN-157">
          <mxGeometry x="-3.0038461538461547" y="82.84285714285714" width="5.384615384615384" height="6.857142857142857" as="geometry" />
        </mxCell>
        <mxCell id="-iCXwF2Be32UM4ucyUXN-169" value="" style="ellipse;whiteSpace=wrap;html=1;aspect=fixed;fontSize=11;strokeColor=#000000;fillColor=none;" vertex="1" parent="-iCXwF2Be32UM4ucyUXN-157">
          <mxGeometry x="-14.92307692307692" y="106.84285714285714" width="4.615384615384615" height="4.615384615384615" as="geometry" />
        </mxCell>
        <mxCell id="-iCXwF2Be32UM4ucyUXN-170" value="" style="ellipse;whiteSpace=wrap;html=1;aspect=fixed;fontSize=11;strokeColor=#000000;fillColor=none;" vertex="1" parent="-iCXwF2Be32UM4ucyUXN-157">
          <mxGeometry x="-3.0038461538461547" y="106.84285714285714" width="4.615384615384615" height="4.615384615384615" as="geometry" />
        </mxCell>
        <mxCell id="-iCXwF2Be32UM4ucyUXN-171" value="" style="endArrow=classic;html=1;rounded=0;fontSize=11;exitX=0.5;exitY=0;exitDx=0;exitDy=0;entryX=0.5;entryY=1;entryDx=0;entryDy=0;" edge="1" parent="-iCXwF2Be32UM4ucyUXN-157" source="-iCXwF2Be32UM4ucyUXN-169" target="-iCXwF2Be32UM4ucyUXN-164">
          <mxGeometry width="50" height="50" relative="1" as="geometry">
            <mxPoint x="-346.07692307692304" y="-167.44285714285712" as="sourcePoint" />
            <mxPoint x="-319.15384615384613" y="-201.7285714285714" as="targetPoint" />
          </mxGeometry>
        </mxCell>
        <mxCell id="-iCXwF2Be32UM4ucyUXN-172" value="" style="endArrow=classic;html=1;rounded=0;fontSize=11;exitX=0.5;exitY=0;exitDx=0;exitDy=0;entryX=0.5;entryY=1;entryDx=0;entryDy=0;" edge="1" parent="-iCXwF2Be32UM4ucyUXN-157" source="-iCXwF2Be32UM4ucyUXN-170" target="-iCXwF2Be32UM4ucyUXN-168">
          <mxGeometry width="50" height="50" relative="1" as="geometry">
            <mxPoint x="-315.4084615384616" y="-105.72857142857141" as="sourcePoint" />
            <mxPoint x="-315.4084615384616" y="-122.87142857142854" as="targetPoint" />
          </mxGeometry>
        </mxCell>
        <mxCell id="-iCXwF2Be32UM4ucyUXN-173" value="&lt;font style=&quot;font-size: 9px;&quot; face=&quot;Georgia&quot;&gt;&lt;i&gt;Item &lt;sub&gt;sN&lt;/sub&gt;&lt;/i&gt;&lt;/font&gt;" style="text;html=1;strokeColor=none;fillColor=none;align=center;verticalAlign=middle;whiteSpace=wrap;rounded=0;fontSize=11;" vertex="1" parent="-iCXwF2Be32UM4ucyUXN-157">
          <mxGeometry x="-38.31" y="106.84000000000002" width="60" height="20.57" as="geometry" />
        </mxCell>
        <mxCell id="-iCXwF2Be32UM4ucyUXN-174" style="edgeStyle=orthogonalEdgeStyle;rounded=0;orthogonalLoop=1;jettySize=auto;html=1;exitX=0.5;exitY=0;exitDx=0;exitDy=0;entryX=1;entryY=0.5;entryDx=0;entryDy=0;fontFamily=Georgia;fontSize=11;" edge="1" parent="1" source="-iCXwF2Be32UM4ucyUXN-175" target="-iCXwF2Be32UM4ucyUXN-177">
          <mxGeometry relative="1" as="geometry">
            <Array as="points">
              <mxPoint x="818" y="421.65" />
            </Array>
          </mxGeometry>
        </mxCell>
        <mxCell id="-iCXwF2Be32UM4ucyUXN-175" value="&lt;font style=&quot;font-size: 10px;&quot;&gt;Activation&lt;br&gt;&lt;/font&gt;" style="rounded=1;whiteSpace=wrap;html=1;fontSize=11;strokeColor=#000000;fillColor=none;" vertex="1" parent="1">
          <mxGeometry x="789.0799999999999" y="431.65" width="57.92" height="10" as="geometry" />
        </mxCell>
        <mxCell id="-iCXwF2Be32UM4ucyUXN-176" style="edgeStyle=none;rounded=0;orthogonalLoop=1;jettySize=auto;html=1;exitX=0.5;exitY=0;exitDx=0;exitDy=0;fontFamily=Georgia;fontSize=10;" edge="1" parent="1" source="-iCXwF2Be32UM4ucyUXN-160">
          <mxGeometry relative="1" as="geometry">
            <mxPoint x="807" y="441.6500000000001" as="targetPoint" />
          </mxGeometry>
        </mxCell>
        <mxCell id="-iCXwF2Be32UM4ucyUXN-177" value="&lt;font style=&quot;font-size: 11px;&quot;&gt;✖️&lt;/font&gt;" style="ellipse;whiteSpace=wrap;html=1;aspect=fixed;fontStyle=0" vertex="1" parent="1">
          <mxGeometry x="772" y="416.65" width="10" height="10" as="geometry" />
        </mxCell>
        <mxCell id="-iCXwF2Be32UM4ucyUXN-178" style="edgeStyle=orthogonalEdgeStyle;rounded=0;orthogonalLoop=1;jettySize=auto;html=1;exitX=0;exitY=0.5;exitDx=0;exitDy=0;entryX=0.5;entryY=1;entryDx=0;entryDy=0;fontFamily=Georgia;fontSize=11;" edge="1" parent="1" source="-iCXwF2Be32UM4ucyUXN-160" target="-iCXwF2Be32UM4ucyUXN-177">
          <mxGeometry relative="1" as="geometry">
            <Array as="points">
              <mxPoint x="777" y="472.65" />
            </Array>
          </mxGeometry>
        </mxCell>
        <mxCell id="-iCXwF2Be32UM4ucyUXN-179" value="" style="endArrow=classic;html=1;rounded=0;fontFamily=Georgia;fontSize=11;strokeColor=#FF8000;entryX=0.75;entryY=1;entryDx=0;entryDy=0;" edge="1" parent="1" target="-iCXwF2Be32UM4ucyUXN-175">
          <mxGeometry width="50" height="50" relative="1" as="geometry">
            <mxPoint x="833" y="461.6500000000001" as="sourcePoint" />
            <mxPoint x="868" y="451.65" as="targetPoint" />
          </mxGeometry>
        </mxCell>
        <mxCell id="-iCXwF2Be32UM4ucyUXN-180" value="" style="endArrow=classic;html=1;rounded=0;fontFamily=Georgia;fontSize=11;strokeColor=#000000;exitX=0.5;exitY=0;exitDx=0;exitDy=0;entryX=0.547;entryY=0.143;entryDx=0;entryDy=0;entryPerimeter=0;" edge="1" parent="1">
          <mxGeometry width="50" height="50" relative="1" as="geometry">
            <mxPoint x="777.1199999999999" y="416.6500000000001" as="sourcePoint" />
            <mxPoint x="776.8599999999997" y="402.5899999999999" as="targetPoint" />
          </mxGeometry>
        </mxCell>
        <mxCell id="-iCXwF2Be32UM4ucyUXN-181" value="" style="rounded=0;whiteSpace=wrap;html=1;fontFamily=Georgia;fontSize=22;strokeColor=#FF8000;fillColor=none;dashed=1;" vertex="1" parent="1">
          <mxGeometry x="540" y="330" width="432" height="260" as="geometry" />
        </mxCell>
        <mxCell id="-iCXwF2Be32UM4ucyUXN-182" value="&lt;font style=&quot;font-size: 22px;&quot;&gt;……&lt;/font&gt;" style="text;html=1;strokeColor=none;fillColor=none;align=center;verticalAlign=middle;whiteSpace=wrap;rounded=0;fontFamily=Georgia;fontSize=11;" vertex="1" parent="1">
          <mxGeometry x="712" y="490" width="60" height="30" as="geometry" />
        </mxCell>
        <mxCell id="-iCXwF2Be32UM4ucyUXN-183" value="&lt;font color=&quot;#ff8000&quot; face=&quot;Helvetica&quot; style=&quot;font-size: 12px;&quot;&gt;用户店铺行为序列模块&lt;/font&gt;" style="text;html=1;strokeColor=none;fillColor=none;align=center;verticalAlign=middle;whiteSpace=wrap;rounded=0;dashed=1;fontFamily=Georgia;fontSize=22;" vertex="1" parent="1">
          <mxGeometry x="628" y="560" width="256" height="30" as="geometry" />
        </mxCell>
        <mxCell id="-iCXwF2Be32UM4ucyUXN-184" value="" style="group" vertex="1" connectable="0" parent="1">
          <mxGeometry x="297.5" y="320" width="40" height="35" as="geometry" />
        </mxCell>
        <mxCell id="-iCXwF2Be32UM4ucyUXN-185" value="" style="group" vertex="1" connectable="0" parent="-iCXwF2Be32UM4ucyUXN-184">
          <mxGeometry x="65" y="25" width="40" height="10" as="geometry" />
        </mxCell>
        <mxCell id="-iCXwF2Be32UM4ucyUXN-186" value="" style="rounded=0;whiteSpace=wrap;html=1;fontSize=22;strokeColor=none;fillColor=#CDA2BE;" vertex="1" parent="-iCXwF2Be32UM4ucyUXN-185">
          <mxGeometry width="10" height="10" as="geometry" />
        </mxCell>
        <mxCell id="-iCXwF2Be32UM4ucyUXN-187" style="edgeStyle=none;rounded=0;orthogonalLoop=1;jettySize=auto;html=1;exitX=1;exitY=1;exitDx=0;exitDy=0;fontSize=22;strokeColor=none;" edge="1" parent="-iCXwF2Be32UM4ucyUXN-185" source="-iCXwF2Be32UM4ucyUXN-186" target="-iCXwF2Be32UM4ucyUXN-186">
          <mxGeometry relative="1" as="geometry" />
        </mxCell>
        <mxCell id="-iCXwF2Be32UM4ucyUXN-188" value="" style="rounded=0;whiteSpace=wrap;html=1;fontSize=22;strokeColor=none;fillColor=#FFCE9F;" vertex="1" parent="-iCXwF2Be32UM4ucyUXN-185">
          <mxGeometry x="10" width="10" height="10" as="geometry" />
        </mxCell>
        <mxCell id="-iCXwF2Be32UM4ucyUXN-189" value="" style="rounded=0;whiteSpace=wrap;html=1;fontSize=22;strokeColor=none;fillColor=#CDA2BE;" vertex="1" parent="-iCXwF2Be32UM4ucyUXN-185">
          <mxGeometry x="20" width="10" height="10" as="geometry" />
        </mxCell>
        <mxCell id="-iCXwF2Be32UM4ucyUXN-190" value="" style="rounded=0;whiteSpace=wrap;html=1;fontSize=22;strokeColor=none;fillColor=#FFCE9F;" vertex="1" parent="-iCXwF2Be32UM4ucyUXN-185">
          <mxGeometry x="30" width="10" height="10" as="geometry" />
        </mxCell>
        <mxCell id="-iCXwF2Be32UM4ucyUXN-191" value="&lt;font style=&quot;font-size: 11px;&quot;&gt;concat&lt;/font&gt;" style="rounded=1;whiteSpace=wrap;html=1;fontSize=11;strokeColor=#000000;fillColor=none;" vertex="1" parent="1">
          <mxGeometry x="359.5" y="360" width="45" height="20" as="geometry" />
        </mxCell>
        <mxCell id="-iCXwF2Be32UM4ucyUXN-192" value="" style="shape=curlyBracket;whiteSpace=wrap;html=1;rounded=1;flipH=1;fontSize=22;strokeColor=#000000;fillColor=#000000;rotation=-90;size=0.5;" vertex="1" parent="1">
          <mxGeometry x="372" y="260" width="20" height="260" as="geometry" />
        </mxCell>
        <mxCell id="-iCXwF2Be32UM4ucyUXN-193" value="" style="endArrow=classic;html=1;rounded=0;fontSize=11;exitX=0.5;exitY=0;exitDx=0;exitDy=0;entryX=0.5;entryY=1;entryDx=0;entryDy=0;" edge="1" parent="1">
          <mxGeometry width="50" height="50" relative="1" as="geometry">
            <mxPoint x="382.28999999999996" y="344.9999999999998" as="sourcePoint" />
            <mxPoint x="382.28999999999996" y="319.9999999999998" as="targetPoint" />
          </mxGeometry>
        </mxCell>
        <mxCell id="-iCXwF2Be32UM4ucyUXN-194" value="" style="group" vertex="1" connectable="0" parent="1">
          <mxGeometry x="250" y="405" width="74" height="110" as="geometry" />
        </mxCell>
        <mxCell id="-iCXwF2Be32UM4ucyUXN-195" value="" style="group" vertex="1" connectable="0" parent="-iCXwF2Be32UM4ucyUXN-194">
          <mxGeometry x="15" width="59" height="105" as="geometry" />
        </mxCell>
        <mxCell id="-iCXwF2Be32UM4ucyUXN-196" value="" style="rounded=0;whiteSpace=wrap;html=1;fontSize=22;strokeColor=none;fillColor=#EA6B66;" vertex="1" parent="-iCXwF2Be32UM4ucyUXN-195">
          <mxGeometry width="10" height="10" as="geometry" />
        </mxCell>
        <mxCell id="-iCXwF2Be32UM4ucyUXN-197" value="" style="rounded=0;whiteSpace=wrap;html=1;fontSize=22;strokeColor=none;fillColor=#F8CECC;" vertex="1" parent="-iCXwF2Be32UM4ucyUXN-195">
          <mxGeometry y="10" width="10" height="10" as="geometry" />
        </mxCell>
        <mxCell id="-iCXwF2Be32UM4ucyUXN-198" value="" style="rounded=0;whiteSpace=wrap;html=1;fontSize=22;strokeColor=none;fillColor=#EA6B66;" vertex="1" parent="-iCXwF2Be32UM4ucyUXN-195">
          <mxGeometry y="20" width="10" height="10" as="geometry" />
        </mxCell>
        <mxCell id="-iCXwF2Be32UM4ucyUXN-199" value="" style="rounded=0;whiteSpace=wrap;html=1;fontSize=22;strokeColor=none;fillColor=#F8CECC;" vertex="1" parent="-iCXwF2Be32UM4ucyUXN-195">
          <mxGeometry y="30" width="10" height="10" as="geometry" />
        </mxCell>
        <mxCell id="-iCXwF2Be32UM4ucyUXN-200" value="" style="rounded=0;whiteSpace=wrap;html=1;fontSize=22;strokeColor=none;fillColor=#FF8000;" vertex="1" parent="-iCXwF2Be32UM4ucyUXN-195">
          <mxGeometry x="20" width="10" height="10" as="geometry" />
        </mxCell>
        <mxCell id="-iCXwF2Be32UM4ucyUXN-201" value="" style="rounded=0;whiteSpace=wrap;html=1;fontSize=22;strokeColor=none;fillColor=#FFB570;" vertex="1" parent="-iCXwF2Be32UM4ucyUXN-195">
          <mxGeometry x="20" y="10" width="10" height="10" as="geometry" />
        </mxCell>
        <mxCell id="-iCXwF2Be32UM4ucyUXN-202" value="" style="rounded=0;whiteSpace=wrap;html=1;fontSize=22;strokeColor=none;fillColor=#FF8000;" vertex="1" parent="-iCXwF2Be32UM4ucyUXN-195">
          <mxGeometry x="20" y="20" width="10" height="15" as="geometry" />
        </mxCell>
        <mxCell id="-iCXwF2Be32UM4ucyUXN-203" value="" style="rounded=0;whiteSpace=wrap;html=1;fontSize=22;strokeColor=none;fillColor=#FFB570;" vertex="1" parent="-iCXwF2Be32UM4ucyUXN-195">
          <mxGeometry x="20" y="30" width="10" height="10" as="geometry" />
        </mxCell>
        <mxCell id="-iCXwF2Be32UM4ucyUXN-204" value="" style="ellipse;whiteSpace=wrap;html=1;aspect=fixed;fontSize=11;strokeColor=#000000;fillColor=none;" vertex="1" parent="-iCXwF2Be32UM4ucyUXN-195">
          <mxGeometry y="65" width="10" height="10" as="geometry" />
        </mxCell>
        <mxCell id="-iCXwF2Be32UM4ucyUXN-205" value="" style="ellipse;whiteSpace=wrap;html=1;aspect=fixed;fontSize=11;strokeColor=#000000;fillColor=none;" vertex="1" parent="-iCXwF2Be32UM4ucyUXN-195">
          <mxGeometry x="20" y="65" width="10" height="10" as="geometry" />
        </mxCell>
        <mxCell id="-iCXwF2Be32UM4ucyUXN-206" value="" style="endArrow=classic;html=1;rounded=0;fontSize=11;exitX=0.5;exitY=0;exitDx=0;exitDy=0;entryX=0.5;entryY=1;entryDx=0;entryDy=0;" edge="1" parent="-iCXwF2Be32UM4ucyUXN-195" source="-iCXwF2Be32UM4ucyUXN-204" target="-iCXwF2Be32UM4ucyUXN-199">
          <mxGeometry width="50" height="50" relative="1" as="geometry">
            <mxPoint x="-195" y="-335" as="sourcePoint" />
            <mxPoint x="-145" y="-385" as="targetPoint" />
          </mxGeometry>
        </mxCell>
        <mxCell id="-iCXwF2Be32UM4ucyUXN-207" value="" style="endArrow=classic;html=1;rounded=0;fontSize=11;exitX=0.5;exitY=0;exitDx=0;exitDy=0;entryX=0.5;entryY=1;entryDx=0;entryDy=0;" edge="1" parent="-iCXwF2Be32UM4ucyUXN-195" source="-iCXwF2Be32UM4ucyUXN-205" target="-iCXwF2Be32UM4ucyUXN-203">
          <mxGeometry width="50" height="50" relative="1" as="geometry">
            <mxPoint x="-140.18" y="-245" as="sourcePoint" />
            <mxPoint x="-140.18" y="-270" as="targetPoint" />
          </mxGeometry>
        </mxCell>
        <mxCell id="-iCXwF2Be32UM4ucyUXN-208" value="" style="group" vertex="1" connectable="0" parent="-iCXwF2Be32UM4ucyUXN-195">
          <mxGeometry x="40" width="19" height="105" as="geometry" />
        </mxCell>
        <mxCell id="-iCXwF2Be32UM4ucyUXN-209" value="" style="rounded=0;whiteSpace=wrap;html=1;fontSize=22;strokeColor=none;fillColor=#CDA2BE;" vertex="1" parent="-iCXwF2Be32UM4ucyUXN-208">
          <mxGeometry width="10" height="10" as="geometry" />
        </mxCell>
        <mxCell id="-iCXwF2Be32UM4ucyUXN-210" value="" style="rounded=0;whiteSpace=wrap;html=1;fontSize=22;strokeColor=none;fillColor=#E6D0DE;" vertex="1" parent="-iCXwF2Be32UM4ucyUXN-208">
          <mxGeometry y="10" width="10" height="10" as="geometry" />
        </mxCell>
        <mxCell id="-iCXwF2Be32UM4ucyUXN-211" value="" style="rounded=0;whiteSpace=wrap;html=1;fontSize=22;strokeColor=none;fillColor=#CDA2BE;" vertex="1" parent="-iCXwF2Be32UM4ucyUXN-208">
          <mxGeometry y="20" width="10" height="15" as="geometry" />
        </mxCell>
        <mxCell id="-iCXwF2Be32UM4ucyUXN-212" value="" style="rounded=0;whiteSpace=wrap;html=1;fontSize=22;strokeColor=none;fillColor=#E6D0DE;" vertex="1" parent="-iCXwF2Be32UM4ucyUXN-208">
          <mxGeometry y="30" width="10" height="10" as="geometry" />
        </mxCell>
        <mxCell id="-iCXwF2Be32UM4ucyUXN-213" value="" style="ellipse;whiteSpace=wrap;html=1;aspect=fixed;fontSize=11;strokeColor=#000000;fillColor=none;" vertex="1" parent="-iCXwF2Be32UM4ucyUXN-208">
          <mxGeometry y="65" width="10" height="10" as="geometry" />
        </mxCell>
        <mxCell id="-iCXwF2Be32UM4ucyUXN-214" value="" style="endArrow=classic;html=1;rounded=0;fontSize=11;exitX=0.5;exitY=0;exitDx=0;exitDy=0;entryX=0.5;entryY=1;entryDx=0;entryDy=0;" edge="1" parent="-iCXwF2Be32UM4ucyUXN-208" source="-iCXwF2Be32UM4ucyUXN-213" target="-iCXwF2Be32UM4ucyUXN-212">
          <mxGeometry width="50" height="50" relative="1" as="geometry">
            <mxPoint x="-500.18" y="-640" as="sourcePoint" />
            <mxPoint x="-500.18" y="-665" as="targetPoint" />
          </mxGeometry>
        </mxCell>
        <mxCell id="-iCXwF2Be32UM4ucyUXN-215" value="Share1" style="text;html=1;strokeColor=none;fillColor=none;align=center;verticalAlign=middle;whiteSpace=wrap;rounded=0;fontSize=11;" vertex="1" parent="-iCXwF2Be32UM4ucyUXN-208">
          <mxGeometry x="-46" y="75" width="65" height="30" as="geometry" />
        </mxCell>
        <mxCell id="-iCXwF2Be32UM4ucyUXN-216" value="" style="group" vertex="1" connectable="0" parent="1">
          <mxGeometry x="330.5" y="405" width="74" height="110" as="geometry" />
        </mxCell>
        <mxCell id="-iCXwF2Be32UM4ucyUXN-217" value="" style="group" vertex="1" connectable="0" parent="-iCXwF2Be32UM4ucyUXN-216">
          <mxGeometry x="15" width="59" height="105" as="geometry" />
        </mxCell>
        <mxCell id="-iCXwF2Be32UM4ucyUXN-218" value="" style="rounded=0;whiteSpace=wrap;html=1;fontSize=22;strokeColor=none;fillColor=#EA6B66;" vertex="1" parent="-iCXwF2Be32UM4ucyUXN-217">
          <mxGeometry width="10" height="10" as="geometry" />
        </mxCell>
        <mxCell id="-iCXwF2Be32UM4ucyUXN-219" value="" style="rounded=0;whiteSpace=wrap;html=1;fontSize=22;strokeColor=none;fillColor=#F8CECC;" vertex="1" parent="-iCXwF2Be32UM4ucyUXN-217">
          <mxGeometry y="10" width="10" height="10" as="geometry" />
        </mxCell>
        <mxCell id="-iCXwF2Be32UM4ucyUXN-220" value="" style="rounded=0;whiteSpace=wrap;html=1;fontSize=22;strokeColor=none;fillColor=#EA6B66;" vertex="1" parent="-iCXwF2Be32UM4ucyUXN-217">
          <mxGeometry y="20" width="10" height="10" as="geometry" />
        </mxCell>
        <mxCell id="-iCXwF2Be32UM4ucyUXN-221" value="" style="rounded=0;whiteSpace=wrap;html=1;fontSize=22;strokeColor=none;fillColor=#F8CECC;" vertex="1" parent="-iCXwF2Be32UM4ucyUXN-217">
          <mxGeometry y="30" width="10" height="10" as="geometry" />
        </mxCell>
        <mxCell id="-iCXwF2Be32UM4ucyUXN-222" value="" style="rounded=0;whiteSpace=wrap;html=1;fontSize=22;strokeColor=none;fillColor=#FF8000;" vertex="1" parent="-iCXwF2Be32UM4ucyUXN-217">
          <mxGeometry x="20" width="10" height="10" as="geometry" />
        </mxCell>
        <mxCell id="-iCXwF2Be32UM4ucyUXN-223" value="" style="rounded=0;whiteSpace=wrap;html=1;fontSize=22;strokeColor=none;fillColor=#FFB570;" vertex="1" parent="-iCXwF2Be32UM4ucyUXN-217">
          <mxGeometry x="20" y="10" width="10" height="10" as="geometry" />
        </mxCell>
        <mxCell id="-iCXwF2Be32UM4ucyUXN-224" value="" style="rounded=0;whiteSpace=wrap;html=1;fontSize=22;strokeColor=none;fillColor=#FF8000;" vertex="1" parent="-iCXwF2Be32UM4ucyUXN-217">
          <mxGeometry x="20" y="20" width="10" height="15" as="geometry" />
        </mxCell>
        <mxCell id="-iCXwF2Be32UM4ucyUXN-225" value="" style="rounded=0;whiteSpace=wrap;html=1;fontSize=22;strokeColor=none;fillColor=#FFB570;" vertex="1" parent="-iCXwF2Be32UM4ucyUXN-217">
          <mxGeometry x="20" y="30" width="10" height="10" as="geometry" />
        </mxCell>
        <mxCell id="-iCXwF2Be32UM4ucyUXN-226" value="" style="ellipse;whiteSpace=wrap;html=1;aspect=fixed;fontSize=11;strokeColor=#000000;fillColor=none;" vertex="1" parent="-iCXwF2Be32UM4ucyUXN-217">
          <mxGeometry y="65" width="10" height="10" as="geometry" />
        </mxCell>
        <mxCell id="-iCXwF2Be32UM4ucyUXN-227" value="" style="ellipse;whiteSpace=wrap;html=1;aspect=fixed;fontSize=11;strokeColor=#000000;fillColor=none;" vertex="1" parent="-iCXwF2Be32UM4ucyUXN-217">
          <mxGeometry x="20" y="65" width="10" height="10" as="geometry" />
        </mxCell>
        <mxCell id="-iCXwF2Be32UM4ucyUXN-228" value="" style="endArrow=classic;html=1;rounded=0;fontSize=11;exitX=0.5;exitY=0;exitDx=0;exitDy=0;entryX=0.5;entryY=1;entryDx=0;entryDy=0;" edge="1" parent="-iCXwF2Be32UM4ucyUXN-217" source="-iCXwF2Be32UM4ucyUXN-226" target="-iCXwF2Be32UM4ucyUXN-221">
          <mxGeometry width="50" height="50" relative="1" as="geometry">
            <mxPoint x="-195" y="-335" as="sourcePoint" />
            <mxPoint x="-145" y="-385" as="targetPoint" />
          </mxGeometry>
        </mxCell>
        <mxCell id="-iCXwF2Be32UM4ucyUXN-229" value="" style="endArrow=classic;html=1;rounded=0;fontSize=11;exitX=0.5;exitY=0;exitDx=0;exitDy=0;entryX=0.5;entryY=1;entryDx=0;entryDy=0;" edge="1" parent="-iCXwF2Be32UM4ucyUXN-217" source="-iCXwF2Be32UM4ucyUXN-227" target="-iCXwF2Be32UM4ucyUXN-225">
          <mxGeometry width="50" height="50" relative="1" as="geometry">
            <mxPoint x="-140.18" y="-245" as="sourcePoint" />
            <mxPoint x="-140.18" y="-270" as="targetPoint" />
          </mxGeometry>
        </mxCell>
        <mxCell id="-iCXwF2Be32UM4ucyUXN-230" value="" style="group" vertex="1" connectable="0" parent="-iCXwF2Be32UM4ucyUXN-217">
          <mxGeometry x="40" width="19" height="105" as="geometry" />
        </mxCell>
        <mxCell id="-iCXwF2Be32UM4ucyUXN-231" value="" style="rounded=0;whiteSpace=wrap;html=1;fontSize=22;strokeColor=none;fillColor=#CDA2BE;" vertex="1" parent="-iCXwF2Be32UM4ucyUXN-230">
          <mxGeometry width="10" height="10" as="geometry" />
        </mxCell>
        <mxCell id="-iCXwF2Be32UM4ucyUXN-232" value="" style="rounded=0;whiteSpace=wrap;html=1;fontSize=22;strokeColor=none;fillColor=#E6D0DE;" vertex="1" parent="-iCXwF2Be32UM4ucyUXN-230">
          <mxGeometry y="10" width="10" height="10" as="geometry" />
        </mxCell>
        <mxCell id="-iCXwF2Be32UM4ucyUXN-233" value="" style="rounded=0;whiteSpace=wrap;html=1;fontSize=22;strokeColor=none;fillColor=#CDA2BE;" vertex="1" parent="-iCXwF2Be32UM4ucyUXN-230">
          <mxGeometry y="20" width="10" height="15" as="geometry" />
        </mxCell>
        <mxCell id="-iCXwF2Be32UM4ucyUXN-234" value="" style="rounded=0;whiteSpace=wrap;html=1;fontSize=22;strokeColor=none;fillColor=#E6D0DE;" vertex="1" parent="-iCXwF2Be32UM4ucyUXN-230">
          <mxGeometry y="30" width="10" height="10" as="geometry" />
        </mxCell>
        <mxCell id="-iCXwF2Be32UM4ucyUXN-235" value="" style="ellipse;whiteSpace=wrap;html=1;aspect=fixed;fontSize=11;strokeColor=#000000;fillColor=none;" vertex="1" parent="-iCXwF2Be32UM4ucyUXN-230">
          <mxGeometry y="65" width="10" height="10" as="geometry" />
        </mxCell>
        <mxCell id="-iCXwF2Be32UM4ucyUXN-236" value="" style="endArrow=classic;html=1;rounded=0;fontSize=11;exitX=0.5;exitY=0;exitDx=0;exitDy=0;entryX=0.5;entryY=1;entryDx=0;entryDy=0;" edge="1" parent="-iCXwF2Be32UM4ucyUXN-230" source="-iCXwF2Be32UM4ucyUXN-235" target="-iCXwF2Be32UM4ucyUXN-234">
          <mxGeometry width="50" height="50" relative="1" as="geometry">
            <mxPoint x="-500.18" y="-640" as="sourcePoint" />
            <mxPoint x="-500.18" y="-665" as="targetPoint" />
          </mxGeometry>
        </mxCell>
        <mxCell id="-iCXwF2Be32UM4ucyUXN-237" value="Share2" style="text;html=1;strokeColor=none;fillColor=none;align=center;verticalAlign=middle;whiteSpace=wrap;rounded=0;fontSize=11;" vertex="1" parent="-iCXwF2Be32UM4ucyUXN-230">
          <mxGeometry x="-46" y="75" width="65" height="30" as="geometry" />
        </mxCell>
        <mxCell id="-iCXwF2Be32UM4ucyUXN-238" value="" style="group" vertex="1" connectable="0" parent="1">
          <mxGeometry x="440" y="405" width="74" height="110" as="geometry" />
        </mxCell>
        <mxCell id="-iCXwF2Be32UM4ucyUXN-239" value="" style="group" vertex="1" connectable="0" parent="-iCXwF2Be32UM4ucyUXN-238">
          <mxGeometry x="15" width="59" height="105" as="geometry" />
        </mxCell>
        <mxCell id="-iCXwF2Be32UM4ucyUXN-240" value="" style="rounded=0;whiteSpace=wrap;html=1;fontSize=22;strokeColor=none;fillColor=#EA6B66;" vertex="1" parent="-iCXwF2Be32UM4ucyUXN-239">
          <mxGeometry width="10" height="10" as="geometry" />
        </mxCell>
        <mxCell id="-iCXwF2Be32UM4ucyUXN-241" value="" style="rounded=0;whiteSpace=wrap;html=1;fontSize=22;strokeColor=none;fillColor=#F8CECC;" vertex="1" parent="-iCXwF2Be32UM4ucyUXN-239">
          <mxGeometry y="10" width="10" height="10" as="geometry" />
        </mxCell>
        <mxCell id="-iCXwF2Be32UM4ucyUXN-242" value="" style="rounded=0;whiteSpace=wrap;html=1;fontSize=22;strokeColor=none;fillColor=#EA6B66;" vertex="1" parent="-iCXwF2Be32UM4ucyUXN-239">
          <mxGeometry y="20" width="10" height="10" as="geometry" />
        </mxCell>
        <mxCell id="-iCXwF2Be32UM4ucyUXN-243" value="" style="rounded=0;whiteSpace=wrap;html=1;fontSize=22;strokeColor=none;fillColor=#F8CECC;" vertex="1" parent="-iCXwF2Be32UM4ucyUXN-239">
          <mxGeometry y="30" width="10" height="10" as="geometry" />
        </mxCell>
        <mxCell id="-iCXwF2Be32UM4ucyUXN-244" value="" style="rounded=0;whiteSpace=wrap;html=1;fontSize=22;strokeColor=none;fillColor=#FF8000;" vertex="1" parent="-iCXwF2Be32UM4ucyUXN-239">
          <mxGeometry x="20" width="10" height="10" as="geometry" />
        </mxCell>
        <mxCell id="-iCXwF2Be32UM4ucyUXN-245" value="" style="rounded=0;whiteSpace=wrap;html=1;fontSize=22;strokeColor=none;fillColor=#FFB570;" vertex="1" parent="-iCXwF2Be32UM4ucyUXN-239">
          <mxGeometry x="20" y="10" width="10" height="10" as="geometry" />
        </mxCell>
        <mxCell id="-iCXwF2Be32UM4ucyUXN-246" value="" style="rounded=0;whiteSpace=wrap;html=1;fontSize=22;strokeColor=none;fillColor=#FF8000;" vertex="1" parent="-iCXwF2Be32UM4ucyUXN-239">
          <mxGeometry x="20" y="20" width="10" height="15" as="geometry" />
        </mxCell>
        <mxCell id="-iCXwF2Be32UM4ucyUXN-247" value="" style="rounded=0;whiteSpace=wrap;html=1;fontSize=22;strokeColor=none;fillColor=#FFB570;" vertex="1" parent="-iCXwF2Be32UM4ucyUXN-239">
          <mxGeometry x="20" y="30" width="10" height="10" as="geometry" />
        </mxCell>
        <mxCell id="-iCXwF2Be32UM4ucyUXN-248" value="" style="ellipse;whiteSpace=wrap;html=1;aspect=fixed;fontSize=11;strokeColor=#000000;fillColor=none;" vertex="1" parent="-iCXwF2Be32UM4ucyUXN-239">
          <mxGeometry y="65" width="10" height="10" as="geometry" />
        </mxCell>
        <mxCell id="-iCXwF2Be32UM4ucyUXN-249" value="" style="ellipse;whiteSpace=wrap;html=1;aspect=fixed;fontSize=11;strokeColor=#000000;fillColor=none;" vertex="1" parent="-iCXwF2Be32UM4ucyUXN-239">
          <mxGeometry x="20" y="65" width="10" height="10" as="geometry" />
        </mxCell>
        <mxCell id="-iCXwF2Be32UM4ucyUXN-250" value="" style="endArrow=classic;html=1;rounded=0;fontSize=11;exitX=0.5;exitY=0;exitDx=0;exitDy=0;entryX=0.5;entryY=1;entryDx=0;entryDy=0;" edge="1" parent="-iCXwF2Be32UM4ucyUXN-239" source="-iCXwF2Be32UM4ucyUXN-248" target="-iCXwF2Be32UM4ucyUXN-243">
          <mxGeometry width="50" height="50" relative="1" as="geometry">
            <mxPoint x="-195" y="-335" as="sourcePoint" />
            <mxPoint x="-145" y="-385" as="targetPoint" />
          </mxGeometry>
        </mxCell>
        <mxCell id="-iCXwF2Be32UM4ucyUXN-251" value="" style="endArrow=classic;html=1;rounded=0;fontSize=11;exitX=0.5;exitY=0;exitDx=0;exitDy=0;entryX=0.5;entryY=1;entryDx=0;entryDy=0;" edge="1" parent="-iCXwF2Be32UM4ucyUXN-239" source="-iCXwF2Be32UM4ucyUXN-249" target="-iCXwF2Be32UM4ucyUXN-247">
          <mxGeometry width="50" height="50" relative="1" as="geometry">
            <mxPoint x="-140.18" y="-245" as="sourcePoint" />
            <mxPoint x="-140.18" y="-270" as="targetPoint" />
          </mxGeometry>
        </mxCell>
        <mxCell id="-iCXwF2Be32UM4ucyUXN-252" value="" style="group" vertex="1" connectable="0" parent="-iCXwF2Be32UM4ucyUXN-239">
          <mxGeometry x="40" width="19" height="105" as="geometry" />
        </mxCell>
        <mxCell id="-iCXwF2Be32UM4ucyUXN-253" value="" style="rounded=0;whiteSpace=wrap;html=1;fontSize=22;strokeColor=none;fillColor=#CDA2BE;" vertex="1" parent="-iCXwF2Be32UM4ucyUXN-252">
          <mxGeometry width="10" height="10" as="geometry" />
        </mxCell>
        <mxCell id="-iCXwF2Be32UM4ucyUXN-254" value="" style="rounded=0;whiteSpace=wrap;html=1;fontSize=22;strokeColor=none;fillColor=#E6D0DE;" vertex="1" parent="-iCXwF2Be32UM4ucyUXN-252">
          <mxGeometry y="10" width="10" height="10" as="geometry" />
        </mxCell>
        <mxCell id="-iCXwF2Be32UM4ucyUXN-255" value="" style="rounded=0;whiteSpace=wrap;html=1;fontSize=22;strokeColor=none;fillColor=#CDA2BE;" vertex="1" parent="-iCXwF2Be32UM4ucyUXN-252">
          <mxGeometry y="20" width="10" height="15" as="geometry" />
        </mxCell>
        <mxCell id="-iCXwF2Be32UM4ucyUXN-256" value="" style="rounded=0;whiteSpace=wrap;html=1;fontSize=22;strokeColor=none;fillColor=#E6D0DE;" vertex="1" parent="-iCXwF2Be32UM4ucyUXN-252">
          <mxGeometry y="30" width="10" height="10" as="geometry" />
        </mxCell>
        <mxCell id="-iCXwF2Be32UM4ucyUXN-257" value="" style="ellipse;whiteSpace=wrap;html=1;aspect=fixed;fontSize=11;strokeColor=#000000;fillColor=none;" vertex="1" parent="-iCXwF2Be32UM4ucyUXN-252">
          <mxGeometry y="65" width="10" height="10" as="geometry" />
        </mxCell>
        <mxCell id="-iCXwF2Be32UM4ucyUXN-258" value="" style="endArrow=classic;html=1;rounded=0;fontSize=11;exitX=0.5;exitY=0;exitDx=0;exitDy=0;entryX=0.5;entryY=1;entryDx=0;entryDy=0;" edge="1" parent="-iCXwF2Be32UM4ucyUXN-252" source="-iCXwF2Be32UM4ucyUXN-257" target="-iCXwF2Be32UM4ucyUXN-256">
          <mxGeometry width="50" height="50" relative="1" as="geometry">
            <mxPoint x="-500.18" y="-640" as="sourcePoint" />
            <mxPoint x="-500.18" y="-665" as="targetPoint" />
          </mxGeometry>
        </mxCell>
        <mxCell id="-iCXwF2Be32UM4ucyUXN-259" value="Share3" style="text;html=1;strokeColor=none;fillColor=none;align=center;verticalAlign=middle;whiteSpace=wrap;rounded=0;fontSize=11;" vertex="1" parent="-iCXwF2Be32UM4ucyUXN-252">
          <mxGeometry x="-46" y="75" width="65" height="30" as="geometry" />
        </mxCell>
        <mxCell id="-iCXwF2Be32UM4ucyUXN-260" value="&lt;font style=&quot;font-size: 22px;&quot;&gt;……&lt;/font&gt;" style="text;html=1;strokeColor=none;fillColor=none;align=center;verticalAlign=middle;whiteSpace=wrap;rounded=0;fontFamily=Georgia;fontSize=11;" vertex="1" parent="1">
          <mxGeometry x="399.5" y="416.65" width="60" height="30" as="geometry" />
        </mxCell>
        <mxCell id="-iCXwF2Be32UM4ucyUXN-261" style="edgeStyle=orthogonalEdgeStyle;rounded=0;orthogonalLoop=1;jettySize=auto;html=1;entryX=0.5;entryY=1;entryDx=0;entryDy=0;" edge="1" parent="1" target="-iCXwF2Be32UM4ucyUXN-265">
          <mxGeometry relative="1" as="geometry">
            <mxPoint x="730" y="299.9999999999998" as="sourcePoint" />
          </mxGeometry>
        </mxCell>
        <mxCell id="-iCXwF2Be32UM4ucyUXN-262" style="edgeStyle=orthogonalEdgeStyle;rounded=0;orthogonalLoop=1;jettySize=auto;html=1;entryX=0.5;entryY=1;entryDx=0;entryDy=0;" edge="1" parent="1" target="-iCXwF2Be32UM4ucyUXN-264">
          <mxGeometry relative="1" as="geometry">
            <mxPoint x="480" y="299.9999999999998" as="sourcePoint" />
            <Array as="points">
              <mxPoint x="480" y="300" />
            </Array>
          </mxGeometry>
        </mxCell>
        <mxCell id="-iCXwF2Be32UM4ucyUXN-263" style="edgeStyle=orthogonalEdgeStyle;rounded=0;orthogonalLoop=1;jettySize=auto;html=1;entryX=0.5;entryY=1;entryDx=0;entryDy=0;" edge="1" parent="1" target="-iCXwF2Be32UM4ucyUXN-275">
          <mxGeometry relative="1" as="geometry">
            <mxPoint x="609" y="299.9999999999998" as="sourcePoint" />
            <Array as="points">
              <mxPoint x="609" y="300" />
              <mxPoint x="609" y="280" />
            </Array>
          </mxGeometry>
        </mxCell>
        <mxCell id="-iCXwF2Be32UM4ucyUXN-264" value="CTR_tower" style="rounded=0;whiteSpace=wrap;html=1;fillColor=#ffe6cc;strokeColor=#d79b00;" vertex="1" parent="1">
          <mxGeometry x="435" y="220" width="90" height="40" as="geometry" />
        </mxCell>
        <mxCell id="-iCXwF2Be32UM4ucyUXN-265" value="CVR_tower" style="rounded=0;whiteSpace=wrap;html=1;fillColor=#fff2cc;strokeColor=#d6b656;" vertex="1" parent="1">
          <mxGeometry x="685" y="220" width="90" height="40" as="geometry" />
        </mxCell>
        <mxCell id="-iCXwF2Be32UM4ucyUXN-266" value="sigmoid" style="rounded=0;whiteSpace=wrap;html=1;fillColor=#ffe6cc;strokeColor=#d79b00;" vertex="1" parent="1">
          <mxGeometry x="435" y="150" width="90" height="30" as="geometry" />
        </mxCell>
        <mxCell id="-iCXwF2Be32UM4ucyUXN-267" style="edgeStyle=orthogonalEdgeStyle;rounded=0;orthogonalLoop=1;jettySize=auto;html=1;exitX=0.5;exitY=0;exitDx=0;exitDy=0;entryX=0.5;entryY=1;entryDx=0;entryDy=0;" edge="1" parent="1" source="-iCXwF2Be32UM4ucyUXN-264" target="-iCXwF2Be32UM4ucyUXN-266">
          <mxGeometry relative="1" as="geometry" />
        </mxCell>
        <mxCell id="-iCXwF2Be32UM4ucyUXN-268" value="sigmoid" style="rounded=0;whiteSpace=wrap;html=1;fillColor=#fff2cc;strokeColor=#d6b656;" vertex="1" parent="1">
          <mxGeometry x="685" y="150" width="90" height="30" as="geometry" />
        </mxCell>
        <mxCell id="-iCXwF2Be32UM4ucyUXN-269" style="edgeStyle=orthogonalEdgeStyle;rounded=0;orthogonalLoop=1;jettySize=auto;html=1;exitX=0.5;exitY=0;exitDx=0;exitDy=0;entryX=0.5;entryY=1;entryDx=0;entryDy=0;" edge="1" parent="1" source="-iCXwF2Be32UM4ucyUXN-265" target="-iCXwF2Be32UM4ucyUXN-268">
          <mxGeometry relative="1" as="geometry" />
        </mxCell>
        <mxCell id="-iCXwF2Be32UM4ucyUXN-270" style="edgeStyle=none;rounded=0;orthogonalLoop=1;jettySize=auto;html=1;exitX=0.5;exitY=0;exitDx=0;exitDy=0;fontSize=21;" edge="1" parent="1" source="-iCXwF2Be32UM4ucyUXN-271">
          <mxGeometry relative="1" as="geometry">
            <mxPoint x="480.07692307692287" y="80" as="targetPoint" />
          </mxGeometry>
        </mxCell>
        <mxCell id="-iCXwF2Be32UM4ucyUXN-271" value="" style="ellipse;whiteSpace=wrap;html=1;aspect=fixed;" vertex="1" parent="1">
          <mxGeometry x="470" y="100" width="20" height="20" as="geometry" />
        </mxCell>
        <mxCell id="-iCXwF2Be32UM4ucyUXN-272" style="edgeStyle=orthogonalEdgeStyle;rounded=0;orthogonalLoop=1;jettySize=auto;html=1;exitX=0.5;exitY=0;exitDx=0;exitDy=0;entryX=0.5;entryY=1;entryDx=0;entryDy=0;" edge="1" parent="1" source="-iCXwF2Be32UM4ucyUXN-266" target="-iCXwF2Be32UM4ucyUXN-271">
          <mxGeometry relative="1" as="geometry" />
        </mxCell>
        <mxCell id="-iCXwF2Be32UM4ucyUXN-273" style="edgeStyle=orthogonalEdgeStyle;rounded=0;orthogonalLoop=1;jettySize=auto;html=1;exitX=0.5;exitY=0;exitDx=0;exitDy=0;entryX=1;entryY=0.5;entryDx=0;entryDy=0;" edge="1" parent="1" source="-iCXwF2Be32UM4ucyUXN-275" target="-iCXwF2Be32UM4ucyUXN-266">
          <mxGeometry relative="1" as="geometry" />
        </mxCell>
        <mxCell id="-iCXwF2Be32UM4ucyUXN-274" style="edgeStyle=orthogonalEdgeStyle;rounded=0;orthogonalLoop=1;jettySize=auto;html=1;exitX=0.5;exitY=0;exitDx=0;exitDy=0;entryX=0;entryY=0.5;entryDx=0;entryDy=0;" edge="1" parent="1" source="-iCXwF2Be32UM4ucyUXN-275" target="-iCXwF2Be32UM4ucyUXN-268">
          <mxGeometry relative="1" as="geometry" />
        </mxCell>
        <mxCell id="-iCXwF2Be32UM4ucyUXN-275" value="Bias_tower" style="rounded=0;whiteSpace=wrap;html=1;fillColor=#f5f5f5;fontColor=#333333;strokeColor=#666666;" vertex="1" parent="1">
          <mxGeometry x="568.5" y="220" width="80" height="40" as="geometry" />
        </mxCell>
        <mxCell id="-iCXwF2Be32UM4ucyUXN-276" style="edgeStyle=none;rounded=0;orthogonalLoop=1;jettySize=auto;html=1;exitX=0.5;exitY=0;exitDx=0;exitDy=0;fontSize=21;" edge="1" parent="1" source="-iCXwF2Be32UM4ucyUXN-277">
          <mxGeometry relative="1" as="geometry">
            <mxPoint x="730.0769230769229" y="80" as="targetPoint" />
          </mxGeometry>
        </mxCell>
        <mxCell id="-iCXwF2Be32UM4ucyUXN-277" value="" style="ellipse;whiteSpace=wrap;html=1;aspect=fixed;" vertex="1" parent="1">
          <mxGeometry x="720" y="100" width="20" height="20" as="geometry" />
        </mxCell>
        <mxCell id="-iCXwF2Be32UM4ucyUXN-278" style="edgeStyle=orthogonalEdgeStyle;rounded=0;orthogonalLoop=1;jettySize=auto;html=1;exitX=0.5;exitY=0;exitDx=0;exitDy=0;entryX=0.5;entryY=1;entryDx=0;entryDy=0;" edge="1" parent="1" source="-iCXwF2Be32UM4ucyUXN-268" target="-iCXwF2Be32UM4ucyUXN-277">
          <mxGeometry relative="1" as="geometry" />
        </mxCell>
        <mxCell id="-iCXwF2Be32UM4ucyUXN-279" style="edgeStyle=none;rounded=0;orthogonalLoop=1;jettySize=auto;html=1;exitX=0.5;exitY=0;exitDx=0;exitDy=0;fontSize=21;" edge="1" parent="1" source="-iCXwF2Be32UM4ucyUXN-280">
          <mxGeometry relative="1" as="geometry">
            <mxPoint x="608.5384615384614" y="50" as="targetPoint" />
          </mxGeometry>
        </mxCell>
        <mxCell id="-iCXwF2Be32UM4ucyUXN-280" value="&lt;font style=&quot;font-size: 22px;&quot;&gt;✖️&lt;/font&gt;" style="ellipse;whiteSpace=wrap;html=1;aspect=fixed;fontStyle=0" vertex="1" parent="1">
          <mxGeometry x="598.5" y="70" width="20" height="20" as="geometry" />
        </mxCell>
        <mxCell id="-iCXwF2Be32UM4ucyUXN-281" style="rounded=0;orthogonalLoop=1;jettySize=auto;html=1;exitX=1;exitY=0;exitDx=0;exitDy=0;entryX=0;entryY=0.5;entryDx=0;entryDy=0;fontSize=21;" edge="1" parent="1" source="-iCXwF2Be32UM4ucyUXN-271" target="-iCXwF2Be32UM4ucyUXN-280">
          <mxGeometry relative="1" as="geometry" />
        </mxCell>
        <mxCell id="-iCXwF2Be32UM4ucyUXN-282" style="edgeStyle=none;rounded=0;orthogonalLoop=1;jettySize=auto;html=1;exitX=0;exitY=0;exitDx=0;exitDy=0;entryX=1;entryY=0.5;entryDx=0;entryDy=0;fontSize=21;" edge="1" parent="1" source="-iCXwF2Be32UM4ucyUXN-277" target="-iCXwF2Be32UM4ucyUXN-280">
          <mxGeometry relative="1" as="geometry" />
        </mxCell>
        <mxCell id="-iCXwF2Be32UM4ucyUXN-283" value="&lt;font style=&quot;font-size: 12px;&quot;&gt;pCTR&lt;/font&gt;" style="text;html=1;strokeColor=none;fillColor=none;align=center;verticalAlign=middle;whiteSpace=wrap;rounded=0;fontSize=21;" vertex="1" parent="1">
          <mxGeometry x="410" y="90" width="60" height="30" as="geometry" />
        </mxCell>
        <mxCell id="-iCXwF2Be32UM4ucyUXN-284" value="&lt;font style=&quot;font-size: 12px;&quot;&gt;pCVR&lt;/font&gt;" style="text;html=1;strokeColor=none;fillColor=none;align=center;verticalAlign=middle;whiteSpace=wrap;rounded=0;fontSize=21;" vertex="1" parent="1">
          <mxGeometry x="740" y="90" width="60" height="30" as="geometry" />
        </mxCell>
        <mxCell id="-iCXwF2Be32UM4ucyUXN-285" value="" style="rounded=0;whiteSpace=wrap;html=1;fontFamily=Georgia;fontSize=22;strokeColor=#FF8000;fillColor=none;dashed=1;" vertex="1" parent="1">
          <mxGeometry x="244" y="330" width="276" height="210" as="geometry" />
        </mxCell>
        <mxCell id="-iCXwF2Be32UM4ucyUXN-286" value="&lt;font color=&quot;#ff8000&quot; face=&quot;Helvetica&quot; style=&quot;font-size: 12px;&quot;&gt;社交裂变关系序列&lt;/font&gt;" style="text;html=1;strokeColor=none;fillColor=none;align=center;verticalAlign=middle;whiteSpace=wrap;rounded=0;dashed=1;fontFamily=Georgia;fontSize=22;" vertex="1" parent="1">
          <mxGeometry x="254" y="510" width="256" height="30" as="geometry" />
        </mxCell>
      </root>
    </mxGraphModel>
  </diagram>
</mxfile>
